%TF.GenerationSoftware,KiCad,Pcbnew,7.0.5*%
%TF.CreationDate,2023-09-03T18:34:12+02:00*%
%TF.ProjectId,half-swept,68616c66-2d73-4776-9570-742e6b696361,rev?*%
%TF.SameCoordinates,Original*%
%TF.FileFunction,Legend,Top*%
%TF.FilePolarity,Positive*%
%FSLAX46Y46*%
G04 Gerber Fmt 4.6, Leading zero omitted, Abs format (unit mm)*
G04 Created by KiCad (PCBNEW 7.0.5) date 2023-09-03 18:34:12*
%MOMM*%
%LPD*%
G01*
G04 APERTURE LIST*
%ADD10C,0.150000*%
%ADD11C,0.120000*%
%ADD12C,0.160000*%
%ADD13C,1.397000*%
G04 APERTURE END LIST*
D10*
X115626219Y-71586163D02*
X115626219Y-72157592D01*
X115626219Y-71871877D02*
X114626219Y-71746877D01*
X114626219Y-71746877D02*
X114769076Y-71859973D01*
X114769076Y-71859973D02*
X114864314Y-71967116D01*
X114864314Y-71967116D02*
X114911933Y-72068306D01*
X116007171Y-71300449D02*
X115959552Y-71246877D01*
X115959552Y-71246877D02*
X115816695Y-71133782D01*
X115816695Y-71133782D02*
X115721457Y-71074258D01*
X115721457Y-71074258D02*
X115578600Y-71008782D01*
X115578600Y-71008782D02*
X115340504Y-70931401D01*
X115340504Y-70931401D02*
X115150028Y-70907592D01*
X115150028Y-70907592D02*
X114911933Y-70925449D01*
X114911933Y-70925449D02*
X114769076Y-70955211D01*
X114769076Y-70955211D02*
X114673838Y-70990925D01*
X114673838Y-70990925D02*
X114530980Y-71068306D01*
X114530980Y-71068306D02*
X114483361Y-71109973D01*
X115626219Y-69729020D02*
X114626219Y-69604020D01*
X114626219Y-69604020D02*
X114626219Y-69223067D01*
X114626219Y-69223067D02*
X114673838Y-69133782D01*
X114673838Y-69133782D02*
X114721457Y-69092115D01*
X114721457Y-69092115D02*
X114816695Y-69056401D01*
X114816695Y-69056401D02*
X114959552Y-69074258D01*
X114959552Y-69074258D02*
X115054790Y-69133782D01*
X115054790Y-69133782D02*
X115102409Y-69187353D01*
X115102409Y-69187353D02*
X115150028Y-69288543D01*
X115150028Y-69288543D02*
X115150028Y-69669496D01*
X115626219Y-68586163D02*
X115578600Y-68675448D01*
X115578600Y-68675448D02*
X115483361Y-68711163D01*
X115483361Y-68711163D02*
X114626219Y-68604020D01*
X115626219Y-67776638D02*
X115102409Y-67711162D01*
X115102409Y-67711162D02*
X115007171Y-67746876D01*
X115007171Y-67746876D02*
X114959552Y-67836162D01*
X114959552Y-67836162D02*
X114959552Y-68026638D01*
X114959552Y-68026638D02*
X115007171Y-68127829D01*
X115578600Y-67770686D02*
X115626219Y-67871876D01*
X115626219Y-67871876D02*
X115626219Y-68109972D01*
X115626219Y-68109972D02*
X115578600Y-68199257D01*
X115578600Y-68199257D02*
X115483361Y-68234972D01*
X115483361Y-68234972D02*
X115388123Y-68223067D01*
X115388123Y-68223067D02*
X115292885Y-68163543D01*
X115292885Y-68163543D02*
X115245266Y-68062353D01*
X115245266Y-68062353D02*
X115245266Y-67824257D01*
X115245266Y-67824257D02*
X115197647Y-67723067D01*
X115578600Y-66865924D02*
X115626219Y-66967114D01*
X115626219Y-66967114D02*
X115626219Y-67157591D01*
X115626219Y-67157591D02*
X115578600Y-67246876D01*
X115578600Y-67246876D02*
X115530980Y-67288543D01*
X115530980Y-67288543D02*
X115435742Y-67324257D01*
X115435742Y-67324257D02*
X115150028Y-67288543D01*
X115150028Y-67288543D02*
X115054790Y-67229019D01*
X115054790Y-67229019D02*
X115007171Y-67175448D01*
X115007171Y-67175448D02*
X114959552Y-67074257D01*
X114959552Y-67074257D02*
X114959552Y-66883781D01*
X114959552Y-66883781D02*
X115007171Y-66794495D01*
X115578600Y-66056400D02*
X115626219Y-66157590D01*
X115626219Y-66157590D02*
X115626219Y-66348067D01*
X115626219Y-66348067D02*
X115578600Y-66437352D01*
X115578600Y-66437352D02*
X115483361Y-66473067D01*
X115483361Y-66473067D02*
X115102409Y-66425448D01*
X115102409Y-66425448D02*
X115007171Y-66365924D01*
X115007171Y-66365924D02*
X114959552Y-66264733D01*
X114959552Y-66264733D02*
X114959552Y-66074257D01*
X114959552Y-66074257D02*
X115007171Y-65984971D01*
X115007171Y-65984971D02*
X115102409Y-65949257D01*
X115102409Y-65949257D02*
X115197647Y-65961162D01*
X115197647Y-65961162D02*
X115292885Y-66449257D01*
X115626219Y-64824257D02*
X114626219Y-64699257D01*
X114626219Y-64699257D02*
X114626219Y-64318304D01*
X114626219Y-64318304D02*
X114673838Y-64229019D01*
X114673838Y-64229019D02*
X114721457Y-64187352D01*
X114721457Y-64187352D02*
X114816695Y-64151638D01*
X114816695Y-64151638D02*
X114959552Y-64169495D01*
X114959552Y-64169495D02*
X115054790Y-64229019D01*
X115054790Y-64229019D02*
X115102409Y-64282590D01*
X115102409Y-64282590D02*
X115150028Y-64383780D01*
X115150028Y-64383780D02*
X115150028Y-64764733D01*
X115626219Y-63824257D02*
X114959552Y-63740923D01*
X115150028Y-63764733D02*
X115054790Y-63705209D01*
X115054790Y-63705209D02*
X115007171Y-63651638D01*
X115007171Y-63651638D02*
X114959552Y-63550447D01*
X114959552Y-63550447D02*
X114959552Y-63455209D01*
X115626219Y-63062352D02*
X115578600Y-63151637D01*
X115578600Y-63151637D02*
X115530980Y-63193304D01*
X115530980Y-63193304D02*
X115435742Y-63229018D01*
X115435742Y-63229018D02*
X115150028Y-63193304D01*
X115150028Y-63193304D02*
X115054790Y-63133780D01*
X115054790Y-63133780D02*
X115007171Y-63080209D01*
X115007171Y-63080209D02*
X114959552Y-62979018D01*
X114959552Y-62979018D02*
X114959552Y-62836161D01*
X114959552Y-62836161D02*
X115007171Y-62746875D01*
X115007171Y-62746875D02*
X115054790Y-62705209D01*
X115054790Y-62705209D02*
X115150028Y-62669494D01*
X115150028Y-62669494D02*
X115435742Y-62705209D01*
X115435742Y-62705209D02*
X115530980Y-62764732D01*
X115530980Y-62764732D02*
X115578600Y-62818304D01*
X115578600Y-62818304D02*
X115626219Y-62919494D01*
X115626219Y-62919494D02*
X115626219Y-63062352D01*
X115245266Y-62252828D02*
X115245266Y-61490923D01*
X115626219Y-61062352D02*
X114626219Y-60937352D01*
X114626219Y-60937352D02*
X115340504Y-60693304D01*
X115340504Y-60693304D02*
X114626219Y-60270685D01*
X114626219Y-60270685D02*
X115626219Y-60395685D01*
X115626219Y-59919495D02*
X114959552Y-59836161D01*
X114626219Y-59794495D02*
X114673838Y-59848066D01*
X114673838Y-59848066D02*
X114721457Y-59806399D01*
X114721457Y-59806399D02*
X114673838Y-59752828D01*
X114673838Y-59752828D02*
X114626219Y-59794495D01*
X114626219Y-59794495D02*
X114721457Y-59806399D01*
X115578600Y-59008781D02*
X115626219Y-59109971D01*
X115626219Y-59109971D02*
X115626219Y-59300448D01*
X115626219Y-59300448D02*
X115578600Y-59389733D01*
X115578600Y-59389733D02*
X115530980Y-59431400D01*
X115530980Y-59431400D02*
X115435742Y-59467114D01*
X115435742Y-59467114D02*
X115150028Y-59431400D01*
X115150028Y-59431400D02*
X115054790Y-59371876D01*
X115054790Y-59371876D02*
X115007171Y-59318305D01*
X115007171Y-59318305D02*
X114959552Y-59217114D01*
X114959552Y-59217114D02*
X114959552Y-59026638D01*
X114959552Y-59026638D02*
X115007171Y-58937352D01*
X115626219Y-58586162D02*
X114959552Y-58502828D01*
X115150028Y-58526638D02*
X115054790Y-58467114D01*
X115054790Y-58467114D02*
X115007171Y-58413543D01*
X115007171Y-58413543D02*
X114959552Y-58312352D01*
X114959552Y-58312352D02*
X114959552Y-58217114D01*
X115626219Y-57824257D02*
X115578600Y-57913542D01*
X115578600Y-57913542D02*
X115530980Y-57955209D01*
X115530980Y-57955209D02*
X115435742Y-57990923D01*
X115435742Y-57990923D02*
X115150028Y-57955209D01*
X115150028Y-57955209D02*
X115054790Y-57895685D01*
X115054790Y-57895685D02*
X115007171Y-57842114D01*
X115007171Y-57842114D02*
X114959552Y-57740923D01*
X114959552Y-57740923D02*
X114959552Y-57598066D01*
X114959552Y-57598066D02*
X115007171Y-57508780D01*
X115007171Y-57508780D02*
X115054790Y-57467114D01*
X115054790Y-57467114D02*
X115150028Y-57431399D01*
X115150028Y-57431399D02*
X115435742Y-57467114D01*
X115435742Y-57467114D02*
X115530980Y-57526637D01*
X115530980Y-57526637D02*
X115578600Y-57580209D01*
X115578600Y-57580209D02*
X115626219Y-57681399D01*
X115626219Y-57681399D02*
X115626219Y-57824257D01*
X114959552Y-56312351D02*
X115626219Y-56205209D01*
X115626219Y-56205209D02*
X115150028Y-55955209D01*
X115150028Y-55955209D02*
X115626219Y-55824256D01*
X115626219Y-55824256D02*
X114959552Y-55550447D01*
X115626219Y-55252828D02*
X114959552Y-55169494D01*
X114626219Y-55127828D02*
X114673838Y-55181399D01*
X114673838Y-55181399D02*
X114721457Y-55139732D01*
X114721457Y-55139732D02*
X114673838Y-55086161D01*
X114673838Y-55086161D02*
X114626219Y-55127828D01*
X114626219Y-55127828D02*
X114721457Y-55139732D01*
X114959552Y-54836161D02*
X114959552Y-54455209D01*
X114626219Y-54651638D02*
X115483361Y-54758781D01*
X115483361Y-54758781D02*
X115578600Y-54723066D01*
X115578600Y-54723066D02*
X115626219Y-54633781D01*
X115626219Y-54633781D02*
X115626219Y-54538542D01*
X115626219Y-54205209D02*
X114626219Y-54080209D01*
X115626219Y-53776637D02*
X115102409Y-53711161D01*
X115102409Y-53711161D02*
X115007171Y-53746875D01*
X115007171Y-53746875D02*
X114959552Y-53836161D01*
X114959552Y-53836161D02*
X114959552Y-53979018D01*
X114959552Y-53979018D02*
X115007171Y-54080209D01*
X115007171Y-54080209D02*
X115054790Y-54133780D01*
X117188600Y-71675449D02*
X117236219Y-71776639D01*
X117236219Y-71776639D02*
X117236219Y-71967116D01*
X117236219Y-71967116D02*
X117188600Y-72056401D01*
X117188600Y-72056401D02*
X117140980Y-72098068D01*
X117140980Y-72098068D02*
X117045742Y-72133782D01*
X117045742Y-72133782D02*
X116760028Y-72098068D01*
X116760028Y-72098068D02*
X116664790Y-72038544D01*
X116664790Y-72038544D02*
X116617171Y-71984973D01*
X116617171Y-71984973D02*
X116569552Y-71883782D01*
X116569552Y-71883782D02*
X116569552Y-71693306D01*
X116569552Y-71693306D02*
X116617171Y-71604020D01*
X117236219Y-71109973D02*
X117188600Y-71199258D01*
X117188600Y-71199258D02*
X117140980Y-71240925D01*
X117140980Y-71240925D02*
X117045742Y-71276639D01*
X117045742Y-71276639D02*
X116760028Y-71240925D01*
X116760028Y-71240925D02*
X116664790Y-71181401D01*
X116664790Y-71181401D02*
X116617171Y-71127830D01*
X116617171Y-71127830D02*
X116569552Y-71026639D01*
X116569552Y-71026639D02*
X116569552Y-70883782D01*
X116569552Y-70883782D02*
X116617171Y-70794496D01*
X116617171Y-70794496D02*
X116664790Y-70752830D01*
X116664790Y-70752830D02*
X116760028Y-70717115D01*
X116760028Y-70717115D02*
X117045742Y-70752830D01*
X117045742Y-70752830D02*
X117140980Y-70812353D01*
X117140980Y-70812353D02*
X117188600Y-70865925D01*
X117188600Y-70865925D02*
X117236219Y-70967115D01*
X117236219Y-70967115D02*
X117236219Y-71109973D01*
X117236219Y-70348068D02*
X116569552Y-70264734D01*
X116664790Y-70276639D02*
X116617171Y-70223068D01*
X116617171Y-70223068D02*
X116569552Y-70121877D01*
X116569552Y-70121877D02*
X116569552Y-69979020D01*
X116569552Y-69979020D02*
X116617171Y-69889734D01*
X116617171Y-69889734D02*
X116712409Y-69854020D01*
X116712409Y-69854020D02*
X117236219Y-69919496D01*
X116712409Y-69854020D02*
X116617171Y-69794496D01*
X116617171Y-69794496D02*
X116569552Y-69693306D01*
X116569552Y-69693306D02*
X116569552Y-69550449D01*
X116569552Y-69550449D02*
X116617171Y-69461163D01*
X116617171Y-69461163D02*
X116712409Y-69425449D01*
X116712409Y-69425449D02*
X117236219Y-69490925D01*
X116569552Y-68931401D02*
X117569552Y-69056401D01*
X116617171Y-68937354D02*
X116569552Y-68836163D01*
X116569552Y-68836163D02*
X116569552Y-68645687D01*
X116569552Y-68645687D02*
X116617171Y-68556401D01*
X116617171Y-68556401D02*
X116664790Y-68514735D01*
X116664790Y-68514735D02*
X116760028Y-68479020D01*
X116760028Y-68479020D02*
X117045742Y-68514735D01*
X117045742Y-68514735D02*
X117140980Y-68574258D01*
X117140980Y-68574258D02*
X117188600Y-68627830D01*
X117188600Y-68627830D02*
X117236219Y-68729020D01*
X117236219Y-68729020D02*
X117236219Y-68919497D01*
X117236219Y-68919497D02*
X117188600Y-69008782D01*
X117236219Y-67967116D02*
X117188600Y-68056401D01*
X117188600Y-68056401D02*
X117140980Y-68098068D01*
X117140980Y-68098068D02*
X117045742Y-68133782D01*
X117045742Y-68133782D02*
X116760028Y-68098068D01*
X116760028Y-68098068D02*
X116664790Y-68038544D01*
X116664790Y-68038544D02*
X116617171Y-67984973D01*
X116617171Y-67984973D02*
X116569552Y-67883782D01*
X116569552Y-67883782D02*
X116569552Y-67740925D01*
X116569552Y-67740925D02*
X116617171Y-67651639D01*
X116617171Y-67651639D02*
X116664790Y-67609973D01*
X116664790Y-67609973D02*
X116760028Y-67574258D01*
X116760028Y-67574258D02*
X117045742Y-67609973D01*
X117045742Y-67609973D02*
X117140980Y-67669496D01*
X117140980Y-67669496D02*
X117188600Y-67723068D01*
X117188600Y-67723068D02*
X117236219Y-67824258D01*
X117236219Y-67824258D02*
X117236219Y-67967116D01*
X116569552Y-67121877D02*
X117236219Y-67205211D01*
X116664790Y-67133782D02*
X116617171Y-67080211D01*
X116617171Y-67080211D02*
X116569552Y-66979020D01*
X116569552Y-66979020D02*
X116569552Y-66836163D01*
X116569552Y-66836163D02*
X116617171Y-66746877D01*
X116617171Y-66746877D02*
X116712409Y-66711163D01*
X116712409Y-66711163D02*
X117236219Y-66776639D01*
X117188600Y-65913544D02*
X117236219Y-66014734D01*
X117236219Y-66014734D02*
X117236219Y-66205211D01*
X117236219Y-66205211D02*
X117188600Y-66294496D01*
X117188600Y-66294496D02*
X117093361Y-66330211D01*
X117093361Y-66330211D02*
X116712409Y-66282592D01*
X116712409Y-66282592D02*
X116617171Y-66223068D01*
X116617171Y-66223068D02*
X116569552Y-66121877D01*
X116569552Y-66121877D02*
X116569552Y-65931401D01*
X116569552Y-65931401D02*
X116617171Y-65842115D01*
X116617171Y-65842115D02*
X116712409Y-65806401D01*
X116712409Y-65806401D02*
X116807647Y-65818306D01*
X116807647Y-65818306D02*
X116902885Y-66306401D01*
X116569552Y-65359972D02*
X117236219Y-65443306D01*
X116664790Y-65371877D02*
X116617171Y-65318306D01*
X116617171Y-65318306D02*
X116569552Y-65217115D01*
X116569552Y-65217115D02*
X116569552Y-65074258D01*
X116569552Y-65074258D02*
X116617171Y-64984972D01*
X116617171Y-64984972D02*
X116712409Y-64949258D01*
X116712409Y-64949258D02*
X117236219Y-65014734D01*
X116569552Y-64598067D02*
X116569552Y-64217115D01*
X116236219Y-64413544D02*
X117093361Y-64520687D01*
X117093361Y-64520687D02*
X117188600Y-64484972D01*
X117188600Y-64484972D02*
X117236219Y-64395687D01*
X117236219Y-64395687D02*
X117236219Y-64300448D01*
X117188600Y-64008781D02*
X117236219Y-63919496D01*
X117236219Y-63919496D02*
X117236219Y-63729019D01*
X117236219Y-63729019D02*
X117188600Y-63627829D01*
X117188600Y-63627829D02*
X117093361Y-63568305D01*
X117093361Y-63568305D02*
X117045742Y-63562353D01*
X117045742Y-63562353D02*
X116950504Y-63598067D01*
X116950504Y-63598067D02*
X116902885Y-63687353D01*
X116902885Y-63687353D02*
X116902885Y-63830210D01*
X116902885Y-63830210D02*
X116855266Y-63919496D01*
X116855266Y-63919496D02*
X116760028Y-63955210D01*
X116760028Y-63955210D02*
X116712409Y-63949258D01*
X116712409Y-63949258D02*
X116617171Y-63889734D01*
X116617171Y-63889734D02*
X116569552Y-63788543D01*
X116569552Y-63788543D02*
X116569552Y-63645686D01*
X116569552Y-63645686D02*
X116617171Y-63556400D01*
X116569552Y-62455209D02*
X116569552Y-62074257D01*
X117236219Y-62395686D02*
X116379076Y-62288543D01*
X116379076Y-62288543D02*
X116283838Y-62229019D01*
X116283838Y-62229019D02*
X116236219Y-62127829D01*
X116236219Y-62127829D02*
X116236219Y-62032590D01*
X117236219Y-61395685D02*
X116712409Y-61330209D01*
X116712409Y-61330209D02*
X116617171Y-61365923D01*
X116617171Y-61365923D02*
X116569552Y-61455209D01*
X116569552Y-61455209D02*
X116569552Y-61645685D01*
X116569552Y-61645685D02*
X116617171Y-61746876D01*
X117188600Y-61389733D02*
X117236219Y-61490923D01*
X117236219Y-61490923D02*
X117236219Y-61729019D01*
X117236219Y-61729019D02*
X117188600Y-61818304D01*
X117188600Y-61818304D02*
X117093361Y-61854019D01*
X117093361Y-61854019D02*
X116998123Y-61842114D01*
X116998123Y-61842114D02*
X116902885Y-61782590D01*
X116902885Y-61782590D02*
X116855266Y-61681400D01*
X116855266Y-61681400D02*
X116855266Y-61443304D01*
X116855266Y-61443304D02*
X116807647Y-61342114D01*
X117188600Y-60484971D02*
X117236219Y-60586161D01*
X117236219Y-60586161D02*
X117236219Y-60776638D01*
X117236219Y-60776638D02*
X117188600Y-60865923D01*
X117188600Y-60865923D02*
X117140980Y-60907590D01*
X117140980Y-60907590D02*
X117045742Y-60943304D01*
X117045742Y-60943304D02*
X116760028Y-60907590D01*
X116760028Y-60907590D02*
X116664790Y-60848066D01*
X116664790Y-60848066D02*
X116617171Y-60794495D01*
X116617171Y-60794495D02*
X116569552Y-60693304D01*
X116569552Y-60693304D02*
X116569552Y-60502828D01*
X116569552Y-60502828D02*
X116617171Y-60413542D01*
X117236219Y-60062352D02*
X116569552Y-59979018D01*
X116236219Y-59937352D02*
X116283838Y-59990923D01*
X116283838Y-59990923D02*
X116331457Y-59949256D01*
X116331457Y-59949256D02*
X116283838Y-59895685D01*
X116283838Y-59895685D02*
X116236219Y-59937352D01*
X116236219Y-59937352D02*
X116331457Y-59949256D01*
X116569552Y-59502828D02*
X117236219Y-59586162D01*
X116664790Y-59514733D02*
X116617171Y-59461162D01*
X116617171Y-59461162D02*
X116569552Y-59359971D01*
X116569552Y-59359971D02*
X116569552Y-59217114D01*
X116569552Y-59217114D02*
X116617171Y-59127828D01*
X116617171Y-59127828D02*
X116712409Y-59092114D01*
X116712409Y-59092114D02*
X117236219Y-59157590D01*
X116569552Y-58169495D02*
X117379076Y-58270685D01*
X117379076Y-58270685D02*
X117474314Y-58330209D01*
X117474314Y-58330209D02*
X117521933Y-58383781D01*
X117521933Y-58383781D02*
X117569552Y-58484971D01*
X117569552Y-58484971D02*
X117569552Y-58627828D01*
X117569552Y-58627828D02*
X117521933Y-58717114D01*
X117188600Y-58246876D02*
X117236219Y-58348066D01*
X117236219Y-58348066D02*
X117236219Y-58538543D01*
X117236219Y-58538543D02*
X117188600Y-58627828D01*
X117188600Y-58627828D02*
X117140980Y-58669495D01*
X117140980Y-58669495D02*
X117045742Y-58705209D01*
X117045742Y-58705209D02*
X116760028Y-58669495D01*
X116760028Y-58669495D02*
X116664790Y-58609971D01*
X116664790Y-58609971D02*
X116617171Y-58556400D01*
X116617171Y-58556400D02*
X116569552Y-58455209D01*
X116569552Y-58455209D02*
X116569552Y-58264733D01*
X116569552Y-58264733D02*
X116617171Y-58175447D01*
X117236219Y-57014733D02*
X116236219Y-56889733D01*
X116236219Y-56889733D02*
X116236219Y-56651637D01*
X116236219Y-56651637D02*
X116283838Y-56514733D01*
X116283838Y-56514733D02*
X116379076Y-56431399D01*
X116379076Y-56431399D02*
X116474314Y-56395685D01*
X116474314Y-56395685D02*
X116664790Y-56371876D01*
X116664790Y-56371876D02*
X116807647Y-56389733D01*
X116807647Y-56389733D02*
X116998123Y-56461161D01*
X116998123Y-56461161D02*
X117093361Y-56520685D01*
X117093361Y-56520685D02*
X117188600Y-56627828D01*
X117188600Y-56627828D02*
X117236219Y-56776637D01*
X117236219Y-56776637D02*
X117236219Y-57014733D01*
X116236219Y-55699256D02*
X116236219Y-55508780D01*
X116236219Y-55508780D02*
X116283838Y-55419495D01*
X116283838Y-55419495D02*
X116379076Y-55336161D01*
X116379076Y-55336161D02*
X116569552Y-55312352D01*
X116569552Y-55312352D02*
X116902885Y-55354018D01*
X116902885Y-55354018D02*
X117093361Y-55425447D01*
X117093361Y-55425447D02*
X117188600Y-55532590D01*
X117188600Y-55532590D02*
X117236219Y-55633780D01*
X117236219Y-55633780D02*
X117236219Y-55824256D01*
X117236219Y-55824256D02*
X117188600Y-55913542D01*
X117188600Y-55913542D02*
X117093361Y-55996876D01*
X117093361Y-55996876D02*
X116902885Y-56020685D01*
X116902885Y-56020685D02*
X116569552Y-55979018D01*
X116569552Y-55979018D02*
X116379076Y-55907590D01*
X116379076Y-55907590D02*
X116283838Y-55800447D01*
X116283838Y-55800447D02*
X116236219Y-55699256D01*
X116236219Y-54937352D02*
X117236219Y-54824257D01*
X117236219Y-54824257D02*
X116521933Y-54544495D01*
X116521933Y-54544495D02*
X117236219Y-54443304D01*
X117236219Y-54443304D02*
X116236219Y-54080209D01*
X117236219Y-53824257D02*
X116236219Y-53699257D01*
X116236219Y-53699257D02*
X117236219Y-53252828D01*
X117236219Y-53252828D02*
X116236219Y-53127828D01*
D11*
X121897289Y-51312702D02*
X121840147Y-51284131D01*
X121840147Y-51284131D02*
X121754432Y-51284131D01*
X121754432Y-51284131D02*
X121668718Y-51312702D01*
X121668718Y-51312702D02*
X121611575Y-51369845D01*
X121611575Y-51369845D02*
X121583004Y-51426988D01*
X121583004Y-51426988D02*
X121554432Y-51541274D01*
X121554432Y-51541274D02*
X121554432Y-51626988D01*
X121554432Y-51626988D02*
X121583004Y-51741274D01*
X121583004Y-51741274D02*
X121611575Y-51798417D01*
X121611575Y-51798417D02*
X121668718Y-51855560D01*
X121668718Y-51855560D02*
X121754432Y-51884131D01*
X121754432Y-51884131D02*
X121811575Y-51884131D01*
X121811575Y-51884131D02*
X121897289Y-51855560D01*
X121897289Y-51855560D02*
X121925861Y-51826988D01*
X121925861Y-51826988D02*
X121925861Y-51626988D01*
X121925861Y-51626988D02*
X121811575Y-51626988D01*
X122183004Y-51884131D02*
X122183004Y-51284131D01*
X122183004Y-51284131D02*
X122525861Y-51884131D01*
X122525861Y-51884131D02*
X122525861Y-51284131D01*
X122811575Y-51884131D02*
X122811575Y-51284131D01*
X122811575Y-51284131D02*
X122954432Y-51284131D01*
X122954432Y-51284131D02*
X123040146Y-51312702D01*
X123040146Y-51312702D02*
X123097289Y-51369845D01*
X123097289Y-51369845D02*
X123125860Y-51426988D01*
X123125860Y-51426988D02*
X123154432Y-51541274D01*
X123154432Y-51541274D02*
X123154432Y-51626988D01*
X123154432Y-51626988D02*
X123125860Y-51741274D01*
X123125860Y-51741274D02*
X123097289Y-51798417D01*
X123097289Y-51798417D02*
X123040146Y-51855560D01*
X123040146Y-51855560D02*
X122954432Y-51884131D01*
X122954432Y-51884131D02*
X122811575Y-51884131D01*
D10*
X120614257Y-72044496D02*
X120566638Y-71990925D01*
X120566638Y-71990925D02*
X120519019Y-71889735D01*
X120519019Y-71889735D02*
X120519019Y-71651639D01*
X120519019Y-71651639D02*
X120566638Y-71562354D01*
X120566638Y-71562354D02*
X120614257Y-71520687D01*
X120614257Y-71520687D02*
X120709495Y-71484973D01*
X120709495Y-71484973D02*
X120804733Y-71496877D01*
X120804733Y-71496877D02*
X120947590Y-71562354D01*
X120947590Y-71562354D02*
X121519019Y-72205211D01*
X121519019Y-72205211D02*
X121519019Y-71586163D01*
X121899971Y-71300449D02*
X121852352Y-71246877D01*
X121852352Y-71246877D02*
X121709495Y-71133782D01*
X121709495Y-71133782D02*
X121614257Y-71074258D01*
X121614257Y-71074258D02*
X121471400Y-71008782D01*
X121471400Y-71008782D02*
X121233304Y-70931401D01*
X121233304Y-70931401D02*
X121042828Y-70907592D01*
X121042828Y-70907592D02*
X120804733Y-70925449D01*
X120804733Y-70925449D02*
X120661876Y-70955211D01*
X120661876Y-70955211D02*
X120566638Y-70990925D01*
X120566638Y-70990925D02*
X120423780Y-71068306D01*
X120423780Y-71068306D02*
X120376161Y-71109973D01*
X121423780Y-69145686D02*
X121471400Y-69199258D01*
X121471400Y-69199258D02*
X121519019Y-69348067D01*
X121519019Y-69348067D02*
X121519019Y-69443305D01*
X121519019Y-69443305D02*
X121471400Y-69580210D01*
X121471400Y-69580210D02*
X121376161Y-69663543D01*
X121376161Y-69663543D02*
X121280923Y-69699258D01*
X121280923Y-69699258D02*
X121090447Y-69723067D01*
X121090447Y-69723067D02*
X120947590Y-69705210D01*
X120947590Y-69705210D02*
X120757114Y-69633782D01*
X120757114Y-69633782D02*
X120661876Y-69574258D01*
X120661876Y-69574258D02*
X120566638Y-69467115D01*
X120566638Y-69467115D02*
X120519019Y-69318305D01*
X120519019Y-69318305D02*
X120519019Y-69223067D01*
X120519019Y-69223067D02*
X120566638Y-69086163D01*
X120566638Y-69086163D02*
X120614257Y-69044496D01*
X121519019Y-68586163D02*
X121471400Y-68675448D01*
X121471400Y-68675448D02*
X121376161Y-68711163D01*
X121376161Y-68711163D02*
X120519019Y-68604020D01*
X121519019Y-68062353D02*
X121471400Y-68151638D01*
X121471400Y-68151638D02*
X121423780Y-68193305D01*
X121423780Y-68193305D02*
X121328542Y-68229019D01*
X121328542Y-68229019D02*
X121042828Y-68193305D01*
X121042828Y-68193305D02*
X120947590Y-68133781D01*
X120947590Y-68133781D02*
X120899971Y-68080210D01*
X120899971Y-68080210D02*
X120852352Y-67979019D01*
X120852352Y-67979019D02*
X120852352Y-67836162D01*
X120852352Y-67836162D02*
X120899971Y-67746876D01*
X120899971Y-67746876D02*
X120947590Y-67705210D01*
X120947590Y-67705210D02*
X121042828Y-67669495D01*
X121042828Y-67669495D02*
X121328542Y-67705210D01*
X121328542Y-67705210D02*
X121423780Y-67764733D01*
X121423780Y-67764733D02*
X121471400Y-67818305D01*
X121471400Y-67818305D02*
X121519019Y-67919495D01*
X121519019Y-67919495D02*
X121519019Y-68062353D01*
X121471400Y-67342114D02*
X121519019Y-67252829D01*
X121519019Y-67252829D02*
X121519019Y-67062352D01*
X121519019Y-67062352D02*
X121471400Y-66961162D01*
X121471400Y-66961162D02*
X121376161Y-66901638D01*
X121376161Y-66901638D02*
X121328542Y-66895686D01*
X121328542Y-66895686D02*
X121233304Y-66931400D01*
X121233304Y-66931400D02*
X121185685Y-67020686D01*
X121185685Y-67020686D02*
X121185685Y-67163543D01*
X121185685Y-67163543D02*
X121138066Y-67252829D01*
X121138066Y-67252829D02*
X121042828Y-67288543D01*
X121042828Y-67288543D02*
X120995209Y-67282591D01*
X120995209Y-67282591D02*
X120899971Y-67223067D01*
X120899971Y-67223067D02*
X120852352Y-67121876D01*
X120852352Y-67121876D02*
X120852352Y-66979019D01*
X120852352Y-66979019D02*
X120899971Y-66889733D01*
X121471400Y-66104019D02*
X121519019Y-66205209D01*
X121519019Y-66205209D02*
X121519019Y-66395686D01*
X121519019Y-66395686D02*
X121471400Y-66484971D01*
X121471400Y-66484971D02*
X121376161Y-66520686D01*
X121376161Y-66520686D02*
X120995209Y-66473067D01*
X120995209Y-66473067D02*
X120899971Y-66413543D01*
X120899971Y-66413543D02*
X120852352Y-66312352D01*
X120852352Y-66312352D02*
X120852352Y-66121876D01*
X120852352Y-66121876D02*
X120899971Y-66032590D01*
X120899971Y-66032590D02*
X120995209Y-65996876D01*
X120995209Y-65996876D02*
X121090447Y-66008781D01*
X121090447Y-66008781D02*
X121185685Y-66496876D01*
X120519019Y-64461161D02*
X121233304Y-64550447D01*
X121233304Y-64550447D02*
X121376161Y-64615923D01*
X121376161Y-64615923D02*
X121471400Y-64723066D01*
X121471400Y-64723066D02*
X121519019Y-64871876D01*
X121519019Y-64871876D02*
X121519019Y-64967114D01*
X120519019Y-63984971D02*
X121328542Y-64086161D01*
X121328542Y-64086161D02*
X121423780Y-64050447D01*
X121423780Y-64050447D02*
X121471400Y-64008780D01*
X121471400Y-64008780D02*
X121519019Y-63919494D01*
X121519019Y-63919494D02*
X121519019Y-63729018D01*
X121519019Y-63729018D02*
X121471400Y-63627828D01*
X121471400Y-63627828D02*
X121423780Y-63574256D01*
X121423780Y-63574256D02*
X121328542Y-63514733D01*
X121328542Y-63514733D02*
X120519019Y-63413542D01*
X121519019Y-63062352D02*
X120519019Y-62937352D01*
X120519019Y-62937352D02*
X121233304Y-62693304D01*
X121233304Y-62693304D02*
X120519019Y-62270685D01*
X120519019Y-62270685D02*
X121519019Y-62395685D01*
X121519019Y-61919495D02*
X120519019Y-61794495D01*
X120519019Y-61794495D02*
X120519019Y-61413542D01*
X120519019Y-61413542D02*
X120566638Y-61324257D01*
X120566638Y-61324257D02*
X120614257Y-61282590D01*
X120614257Y-61282590D02*
X120709495Y-61246876D01*
X120709495Y-61246876D02*
X120852352Y-61264733D01*
X120852352Y-61264733D02*
X120947590Y-61324257D01*
X120947590Y-61324257D02*
X120995209Y-61377828D01*
X120995209Y-61377828D02*
X121042828Y-61479018D01*
X121042828Y-61479018D02*
X121042828Y-61859971D01*
X120995209Y-60854018D02*
X120995209Y-60520685D01*
X121519019Y-60443304D02*
X121519019Y-60919495D01*
X121519019Y-60919495D02*
X120519019Y-60794495D01*
X120519019Y-60794495D02*
X120519019Y-60318304D01*
X121519019Y-59443304D02*
X121042828Y-59717114D01*
X121519019Y-60014733D02*
X120519019Y-59889733D01*
X120519019Y-59889733D02*
X120519019Y-59508780D01*
X120519019Y-59508780D02*
X120566638Y-59419495D01*
X120566638Y-59419495D02*
X120614257Y-59377828D01*
X120614257Y-59377828D02*
X120709495Y-59342114D01*
X120709495Y-59342114D02*
X120852352Y-59359971D01*
X120852352Y-59359971D02*
X120947590Y-59419495D01*
X120947590Y-59419495D02*
X120995209Y-59473066D01*
X120995209Y-59473066D02*
X121042828Y-59574256D01*
X121042828Y-59574256D02*
X121042828Y-59955209D01*
X121519019Y-58252828D02*
X120519019Y-58127828D01*
X120519019Y-58127828D02*
X120519019Y-57746875D01*
X120519019Y-57746875D02*
X120566638Y-57657590D01*
X120566638Y-57657590D02*
X120614257Y-57615923D01*
X120614257Y-57615923D02*
X120709495Y-57580209D01*
X120709495Y-57580209D02*
X120852352Y-57598066D01*
X120852352Y-57598066D02*
X120947590Y-57657590D01*
X120947590Y-57657590D02*
X120995209Y-57711161D01*
X120995209Y-57711161D02*
X121042828Y-57812351D01*
X121042828Y-57812351D02*
X121042828Y-58193304D01*
X121233304Y-57264732D02*
X121233304Y-56788542D01*
X121519019Y-57395685D02*
X120519019Y-56937351D01*
X120519019Y-56937351D02*
X121519019Y-56729018D01*
X121519019Y-56395685D02*
X120519019Y-56270685D01*
X120519019Y-56270685D02*
X120519019Y-56032589D01*
X120519019Y-56032589D02*
X120566638Y-55895685D01*
X120566638Y-55895685D02*
X120661876Y-55812351D01*
X120661876Y-55812351D02*
X120757114Y-55776637D01*
X120757114Y-55776637D02*
X120947590Y-55752828D01*
X120947590Y-55752828D02*
X121090447Y-55770685D01*
X121090447Y-55770685D02*
X121280923Y-55842113D01*
X121280923Y-55842113D02*
X121376161Y-55901637D01*
X121376161Y-55901637D02*
X121471400Y-56008780D01*
X121471400Y-56008780D02*
X121519019Y-56157589D01*
X121519019Y-56157589D02*
X121519019Y-56395685D01*
X121471400Y-55437351D02*
X121519019Y-55300447D01*
X121519019Y-55300447D02*
X121519019Y-55062351D01*
X121519019Y-55062351D02*
X121471400Y-54961161D01*
X121471400Y-54961161D02*
X121423780Y-54907589D01*
X121423780Y-54907589D02*
X121328542Y-54848066D01*
X121328542Y-54848066D02*
X121233304Y-54836161D01*
X121233304Y-54836161D02*
X121138066Y-54871875D01*
X121138066Y-54871875D02*
X121090447Y-54913542D01*
X121090447Y-54913542D02*
X121042828Y-55002828D01*
X121042828Y-55002828D02*
X120995209Y-55187351D01*
X120995209Y-55187351D02*
X120947590Y-55276637D01*
X120947590Y-55276637D02*
X120899971Y-55318304D01*
X120899971Y-55318304D02*
X120804733Y-55354018D01*
X120804733Y-55354018D02*
X120709495Y-55342113D01*
X120709495Y-55342113D02*
X120614257Y-55282589D01*
X120614257Y-55282589D02*
X120566638Y-55229018D01*
X120566638Y-55229018D02*
X120519019Y-55127828D01*
X120519019Y-55127828D02*
X120519019Y-54889732D01*
X120519019Y-54889732D02*
X120566638Y-54752828D01*
X123129019Y-71967116D02*
X123081400Y-72056401D01*
X123081400Y-72056401D02*
X123033780Y-72098068D01*
X123033780Y-72098068D02*
X122938542Y-72133782D01*
X122938542Y-72133782D02*
X122652828Y-72098068D01*
X122652828Y-72098068D02*
X122557590Y-72038544D01*
X122557590Y-72038544D02*
X122509971Y-71984973D01*
X122509971Y-71984973D02*
X122462352Y-71883782D01*
X122462352Y-71883782D02*
X122462352Y-71740925D01*
X122462352Y-71740925D02*
X122509971Y-71651639D01*
X122509971Y-71651639D02*
X122557590Y-71609973D01*
X122557590Y-71609973D02*
X122652828Y-71574258D01*
X122652828Y-71574258D02*
X122938542Y-71609973D01*
X122938542Y-71609973D02*
X123033780Y-71669496D01*
X123033780Y-71669496D02*
X123081400Y-71723068D01*
X123081400Y-71723068D02*
X123129019Y-71824258D01*
X123129019Y-71824258D02*
X123129019Y-71967116D01*
X122462352Y-71121877D02*
X123129019Y-71205211D01*
X122557590Y-71133782D02*
X122509971Y-71080211D01*
X122509971Y-71080211D02*
X122462352Y-70979020D01*
X122462352Y-70979020D02*
X122462352Y-70836163D01*
X122462352Y-70836163D02*
X122509971Y-70746877D01*
X122509971Y-70746877D02*
X122605209Y-70711163D01*
X122605209Y-70711163D02*
X123129019Y-70776639D01*
X122462352Y-69598067D02*
X122462352Y-69217115D01*
X122129019Y-69413544D02*
X122986161Y-69520687D01*
X122986161Y-69520687D02*
X123081400Y-69484972D01*
X123081400Y-69484972D02*
X123129019Y-69395687D01*
X123129019Y-69395687D02*
X123129019Y-69300448D01*
X123129019Y-68967115D02*
X122129019Y-68842115D01*
X123129019Y-68538543D02*
X122605209Y-68473067D01*
X122605209Y-68473067D02*
X122509971Y-68508781D01*
X122509971Y-68508781D02*
X122462352Y-68598067D01*
X122462352Y-68598067D02*
X122462352Y-68740924D01*
X122462352Y-68740924D02*
X122509971Y-68842115D01*
X122509971Y-68842115D02*
X122557590Y-68895686D01*
X123081400Y-67675448D02*
X123129019Y-67776638D01*
X123129019Y-67776638D02*
X123129019Y-67967115D01*
X123129019Y-67967115D02*
X123081400Y-68056400D01*
X123081400Y-68056400D02*
X122986161Y-68092115D01*
X122986161Y-68092115D02*
X122605209Y-68044496D01*
X122605209Y-68044496D02*
X122509971Y-67984972D01*
X122509971Y-67984972D02*
X122462352Y-67883781D01*
X122462352Y-67883781D02*
X122462352Y-67693305D01*
X122462352Y-67693305D02*
X122509971Y-67604019D01*
X122509971Y-67604019D02*
X122605209Y-67568305D01*
X122605209Y-67568305D02*
X122700447Y-67580210D01*
X122700447Y-67580210D02*
X122795685Y-68068305D01*
X122129019Y-66127828D02*
X122129019Y-65937352D01*
X122129019Y-65937352D02*
X122176638Y-65848067D01*
X122176638Y-65848067D02*
X122271876Y-65764733D01*
X122271876Y-65764733D02*
X122462352Y-65740924D01*
X122462352Y-65740924D02*
X122795685Y-65782590D01*
X122795685Y-65782590D02*
X122986161Y-65854019D01*
X122986161Y-65854019D02*
X123081400Y-65961162D01*
X123081400Y-65961162D02*
X123129019Y-66062352D01*
X123129019Y-66062352D02*
X123129019Y-66252828D01*
X123129019Y-66252828D02*
X123081400Y-66342114D01*
X123081400Y-66342114D02*
X122986161Y-66425448D01*
X122986161Y-66425448D02*
X122795685Y-66449257D01*
X122795685Y-66449257D02*
X122462352Y-66407590D01*
X122462352Y-66407590D02*
X122271876Y-66336162D01*
X122271876Y-66336162D02*
X122176638Y-66229019D01*
X122176638Y-66229019D02*
X122129019Y-66127828D01*
X123129019Y-65395686D02*
X122129019Y-65270686D01*
X122129019Y-65270686D02*
X122129019Y-64889733D01*
X122129019Y-64889733D02*
X122176638Y-64800448D01*
X122176638Y-64800448D02*
X122224257Y-64758781D01*
X122224257Y-64758781D02*
X122319495Y-64723067D01*
X122319495Y-64723067D02*
X122462352Y-64740924D01*
X122462352Y-64740924D02*
X122557590Y-64800448D01*
X122557590Y-64800448D02*
X122605209Y-64854019D01*
X122605209Y-64854019D02*
X122652828Y-64955209D01*
X122652828Y-64955209D02*
X122652828Y-65336162D01*
X123129019Y-64395686D02*
X122129019Y-64270686D01*
X122129019Y-64270686D02*
X122129019Y-63889733D01*
X122129019Y-63889733D02*
X122176638Y-63800448D01*
X122176638Y-63800448D02*
X122224257Y-63758781D01*
X122224257Y-63758781D02*
X122319495Y-63723067D01*
X122319495Y-63723067D02*
X122462352Y-63740924D01*
X122462352Y-63740924D02*
X122557590Y-63800448D01*
X122557590Y-63800448D02*
X122605209Y-63854019D01*
X122605209Y-63854019D02*
X122652828Y-63955209D01*
X122652828Y-63955209D02*
X122652828Y-64336162D01*
X122129019Y-63080209D02*
X122129019Y-62889733D01*
X122129019Y-62889733D02*
X122176638Y-62800448D01*
X122176638Y-62800448D02*
X122271876Y-62717114D01*
X122271876Y-62717114D02*
X122462352Y-62693305D01*
X122462352Y-62693305D02*
X122795685Y-62734971D01*
X122795685Y-62734971D02*
X122986161Y-62806400D01*
X122986161Y-62806400D02*
X123081400Y-62913543D01*
X123081400Y-62913543D02*
X123129019Y-63014733D01*
X123129019Y-63014733D02*
X123129019Y-63205209D01*
X123129019Y-63205209D02*
X123081400Y-63294495D01*
X123081400Y-63294495D02*
X122986161Y-63377829D01*
X122986161Y-63377829D02*
X122795685Y-63401638D01*
X122795685Y-63401638D02*
X122462352Y-63359971D01*
X122462352Y-63359971D02*
X122271876Y-63288543D01*
X122271876Y-63288543D02*
X122176638Y-63181400D01*
X122176638Y-63181400D02*
X122129019Y-63080209D01*
X123081400Y-62389733D02*
X123129019Y-62252829D01*
X123129019Y-62252829D02*
X123129019Y-62014733D01*
X123129019Y-62014733D02*
X123081400Y-61913543D01*
X123081400Y-61913543D02*
X123033780Y-61859971D01*
X123033780Y-61859971D02*
X122938542Y-61800448D01*
X122938542Y-61800448D02*
X122843304Y-61788543D01*
X122843304Y-61788543D02*
X122748066Y-61824257D01*
X122748066Y-61824257D02*
X122700447Y-61865924D01*
X122700447Y-61865924D02*
X122652828Y-61955210D01*
X122652828Y-61955210D02*
X122605209Y-62139733D01*
X122605209Y-62139733D02*
X122557590Y-62229019D01*
X122557590Y-62229019D02*
X122509971Y-62270686D01*
X122509971Y-62270686D02*
X122414733Y-62306400D01*
X122414733Y-62306400D02*
X122319495Y-62294495D01*
X122319495Y-62294495D02*
X122224257Y-62234971D01*
X122224257Y-62234971D02*
X122176638Y-62181400D01*
X122176638Y-62181400D02*
X122129019Y-62080210D01*
X122129019Y-62080210D02*
X122129019Y-61842114D01*
X122129019Y-61842114D02*
X122176638Y-61705210D01*
X123129019Y-61395686D02*
X122129019Y-61270686D01*
X122129019Y-60937353D02*
X122129019Y-60365924D01*
X123129019Y-60776639D02*
X122129019Y-60651639D01*
X122605209Y-60092114D02*
X122605209Y-59758781D01*
X123129019Y-59681400D02*
X123129019Y-60157591D01*
X123129019Y-60157591D02*
X122129019Y-60032591D01*
X122129019Y-60032591D02*
X122129019Y-59556400D01*
X123081400Y-58532590D02*
X123129019Y-58395686D01*
X123129019Y-58395686D02*
X123129019Y-58157590D01*
X123129019Y-58157590D02*
X123081400Y-58056400D01*
X123081400Y-58056400D02*
X123033780Y-58002828D01*
X123033780Y-58002828D02*
X122938542Y-57943305D01*
X122938542Y-57943305D02*
X122843304Y-57931400D01*
X122843304Y-57931400D02*
X122748066Y-57967114D01*
X122748066Y-57967114D02*
X122700447Y-58008781D01*
X122700447Y-58008781D02*
X122652828Y-58098067D01*
X122652828Y-58098067D02*
X122605209Y-58282590D01*
X122605209Y-58282590D02*
X122557590Y-58371876D01*
X122557590Y-58371876D02*
X122509971Y-58413543D01*
X122509971Y-58413543D02*
X122414733Y-58449257D01*
X122414733Y-58449257D02*
X122319495Y-58437352D01*
X122319495Y-58437352D02*
X122224257Y-58377828D01*
X122224257Y-58377828D02*
X122176638Y-58324257D01*
X122176638Y-58324257D02*
X122129019Y-58223067D01*
X122129019Y-58223067D02*
X122129019Y-57984971D01*
X122129019Y-57984971D02*
X122176638Y-57848067D01*
X123129019Y-57538543D02*
X122129019Y-57413543D01*
X123129019Y-57062353D02*
X122129019Y-56937353D01*
X122129019Y-56937353D02*
X122129019Y-56699257D01*
X122129019Y-56699257D02*
X122176638Y-56562353D01*
X122176638Y-56562353D02*
X122271876Y-56479019D01*
X122271876Y-56479019D02*
X122367114Y-56443305D01*
X122367114Y-56443305D02*
X122557590Y-56419496D01*
X122557590Y-56419496D02*
X122700447Y-56437353D01*
X122700447Y-56437353D02*
X122890923Y-56508781D01*
X122890923Y-56508781D02*
X122986161Y-56568305D01*
X122986161Y-56568305D02*
X123081400Y-56675448D01*
X123081400Y-56675448D02*
X123129019Y-56824257D01*
X123129019Y-56824257D02*
X123129019Y-57062353D01*
X122605209Y-55996876D02*
X122605209Y-55663543D01*
X123129019Y-55586162D02*
X123129019Y-56062353D01*
X123129019Y-56062353D02*
X122129019Y-55937353D01*
X122129019Y-55937353D02*
X122129019Y-55461162D01*
X117110095Y-82131819D02*
X117681523Y-82131819D01*
X117395809Y-83131819D02*
X117395809Y-82131819D01*
X118586285Y-83131819D02*
X118252952Y-82655628D01*
X118014857Y-83131819D02*
X118014857Y-82131819D01*
X118014857Y-82131819D02*
X118395809Y-82131819D01*
X118395809Y-82131819D02*
X118491047Y-82179438D01*
X118491047Y-82179438D02*
X118538666Y-82227057D01*
X118538666Y-82227057D02*
X118586285Y-82322295D01*
X118586285Y-82322295D02*
X118586285Y-82465152D01*
X118586285Y-82465152D02*
X118538666Y-82560390D01*
X118538666Y-82560390D02*
X118491047Y-82608009D01*
X118491047Y-82608009D02*
X118395809Y-82655628D01*
X118395809Y-82655628D02*
X118014857Y-82655628D01*
X119586285Y-83131819D02*
X119252952Y-82655628D01*
X119014857Y-83131819D02*
X119014857Y-82131819D01*
X119014857Y-82131819D02*
X119395809Y-82131819D01*
X119395809Y-82131819D02*
X119491047Y-82179438D01*
X119491047Y-82179438D02*
X119538666Y-82227057D01*
X119538666Y-82227057D02*
X119586285Y-82322295D01*
X119586285Y-82322295D02*
X119586285Y-82465152D01*
X119586285Y-82465152D02*
X119538666Y-82560390D01*
X119538666Y-82560390D02*
X119491047Y-82608009D01*
X119491047Y-82608009D02*
X119395809Y-82655628D01*
X119395809Y-82655628D02*
X119014857Y-82655628D01*
X119967238Y-83084200D02*
X120110095Y-83131819D01*
X120110095Y-83131819D02*
X120348190Y-83131819D01*
X120348190Y-83131819D02*
X120443428Y-83084200D01*
X120443428Y-83084200D02*
X120491047Y-83036580D01*
X120491047Y-83036580D02*
X120538666Y-82941342D01*
X120538666Y-82941342D02*
X120538666Y-82846104D01*
X120538666Y-82846104D02*
X120491047Y-82750866D01*
X120491047Y-82750866D02*
X120443428Y-82703247D01*
X120443428Y-82703247D02*
X120348190Y-82655628D01*
X120348190Y-82655628D02*
X120157714Y-82608009D01*
X120157714Y-82608009D02*
X120062476Y-82560390D01*
X120062476Y-82560390D02*
X120014857Y-82512771D01*
X120014857Y-82512771D02*
X119967238Y-82417533D01*
X119967238Y-82417533D02*
X119967238Y-82322295D01*
X119967238Y-82322295D02*
X120014857Y-82227057D01*
X120014857Y-82227057D02*
X120062476Y-82179438D01*
X120062476Y-82179438D02*
X120157714Y-82131819D01*
X120157714Y-82131819D02*
X120395809Y-82131819D01*
X120395809Y-82131819D02*
X120538666Y-82179438D01*
D11*
X121925861Y-49344131D02*
X121725861Y-49058417D01*
X121583004Y-49344131D02*
X121583004Y-48744131D01*
X121583004Y-48744131D02*
X121811575Y-48744131D01*
X121811575Y-48744131D02*
X121868718Y-48772702D01*
X121868718Y-48772702D02*
X121897289Y-48801274D01*
X121897289Y-48801274D02*
X121925861Y-48858417D01*
X121925861Y-48858417D02*
X121925861Y-48944131D01*
X121925861Y-48944131D02*
X121897289Y-49001274D01*
X121897289Y-49001274D02*
X121868718Y-49029845D01*
X121868718Y-49029845D02*
X121811575Y-49058417D01*
X121811575Y-49058417D02*
X121583004Y-49058417D01*
X122154432Y-49172702D02*
X122440147Y-49172702D01*
X122097289Y-49344131D02*
X122297289Y-48744131D01*
X122297289Y-48744131D02*
X122497289Y-49344131D01*
X122640147Y-48744131D02*
X122783004Y-49344131D01*
X122783004Y-49344131D02*
X122897290Y-48915560D01*
X122897290Y-48915560D02*
X123011575Y-49344131D01*
X123011575Y-49344131D02*
X123154433Y-48744131D01*
D10*
%TO.C,B+*%
X124385429Y-45929485D02*
X124471143Y-45958057D01*
X124471143Y-45958057D02*
X124499714Y-45986628D01*
X124499714Y-45986628D02*
X124528286Y-46043771D01*
X124528286Y-46043771D02*
X124528286Y-46129485D01*
X124528286Y-46129485D02*
X124499714Y-46186628D01*
X124499714Y-46186628D02*
X124471143Y-46215200D01*
X124471143Y-46215200D02*
X124414000Y-46243771D01*
X124414000Y-46243771D02*
X124185429Y-46243771D01*
X124185429Y-46243771D02*
X124185429Y-45643771D01*
X124185429Y-45643771D02*
X124385429Y-45643771D01*
X124385429Y-45643771D02*
X124442572Y-45672342D01*
X124442572Y-45672342D02*
X124471143Y-45700914D01*
X124471143Y-45700914D02*
X124499714Y-45758057D01*
X124499714Y-45758057D02*
X124499714Y-45815200D01*
X124499714Y-45815200D02*
X124471143Y-45872342D01*
X124471143Y-45872342D02*
X124442572Y-45900914D01*
X124442572Y-45900914D02*
X124385429Y-45929485D01*
X124385429Y-45929485D02*
X124185429Y-45929485D01*
X124785429Y-46015200D02*
X125242572Y-46015200D01*
X125014000Y-46243771D02*
X125014000Y-45786628D01*
%TO.C,B-*%
X112701429Y-45929485D02*
X112787143Y-45958057D01*
X112787143Y-45958057D02*
X112815714Y-45986628D01*
X112815714Y-45986628D02*
X112844286Y-46043771D01*
X112844286Y-46043771D02*
X112844286Y-46129485D01*
X112844286Y-46129485D02*
X112815714Y-46186628D01*
X112815714Y-46186628D02*
X112787143Y-46215200D01*
X112787143Y-46215200D02*
X112730000Y-46243771D01*
X112730000Y-46243771D02*
X112501429Y-46243771D01*
X112501429Y-46243771D02*
X112501429Y-45643771D01*
X112501429Y-45643771D02*
X112701429Y-45643771D01*
X112701429Y-45643771D02*
X112758572Y-45672342D01*
X112758572Y-45672342D02*
X112787143Y-45700914D01*
X112787143Y-45700914D02*
X112815714Y-45758057D01*
X112815714Y-45758057D02*
X112815714Y-45815200D01*
X112815714Y-45815200D02*
X112787143Y-45872342D01*
X112787143Y-45872342D02*
X112758572Y-45900914D01*
X112758572Y-45900914D02*
X112701429Y-45929485D01*
X112701429Y-45929485D02*
X112501429Y-45929485D01*
X113101429Y-46015200D02*
X113558572Y-46015200D01*
D12*
%TO.C,SW1*%
X21057491Y-40806380D02*
X21186063Y-40849237D01*
X21186063Y-40849237D02*
X21400348Y-40849237D01*
X21400348Y-40849237D02*
X21486063Y-40806380D01*
X21486063Y-40806380D02*
X21528920Y-40763522D01*
X21528920Y-40763522D02*
X21571777Y-40677808D01*
X21571777Y-40677808D02*
X21571777Y-40592094D01*
X21571777Y-40592094D02*
X21528920Y-40506380D01*
X21528920Y-40506380D02*
X21486063Y-40463522D01*
X21486063Y-40463522D02*
X21400348Y-40420665D01*
X21400348Y-40420665D02*
X21228920Y-40377808D01*
X21228920Y-40377808D02*
X21143205Y-40334951D01*
X21143205Y-40334951D02*
X21100348Y-40292094D01*
X21100348Y-40292094D02*
X21057491Y-40206380D01*
X21057491Y-40206380D02*
X21057491Y-40120665D01*
X21057491Y-40120665D02*
X21100348Y-40034951D01*
X21100348Y-40034951D02*
X21143205Y-39992094D01*
X21143205Y-39992094D02*
X21228920Y-39949237D01*
X21228920Y-39949237D02*
X21443205Y-39949237D01*
X21443205Y-39949237D02*
X21571777Y-39992094D01*
X21871777Y-39949237D02*
X22086063Y-40849237D01*
X22086063Y-40849237D02*
X22257491Y-40206380D01*
X22257491Y-40206380D02*
X22428920Y-40849237D01*
X22428920Y-40849237D02*
X22643206Y-39949237D01*
X23457491Y-40849237D02*
X22943205Y-40849237D01*
X23200348Y-40849237D02*
X23200348Y-39949237D01*
X23200348Y-39949237D02*
X23114634Y-40077808D01*
X23114634Y-40077808D02*
X23028919Y-40163522D01*
X23028919Y-40163522D02*
X22943205Y-40206380D01*
%TO.C,SW2*%
X39057491Y-28806380D02*
X39186063Y-28849237D01*
X39186063Y-28849237D02*
X39400348Y-28849237D01*
X39400348Y-28849237D02*
X39486063Y-28806380D01*
X39486063Y-28806380D02*
X39528920Y-28763522D01*
X39528920Y-28763522D02*
X39571777Y-28677808D01*
X39571777Y-28677808D02*
X39571777Y-28592094D01*
X39571777Y-28592094D02*
X39528920Y-28506380D01*
X39528920Y-28506380D02*
X39486063Y-28463522D01*
X39486063Y-28463522D02*
X39400348Y-28420665D01*
X39400348Y-28420665D02*
X39228920Y-28377808D01*
X39228920Y-28377808D02*
X39143205Y-28334951D01*
X39143205Y-28334951D02*
X39100348Y-28292094D01*
X39100348Y-28292094D02*
X39057491Y-28206380D01*
X39057491Y-28206380D02*
X39057491Y-28120665D01*
X39057491Y-28120665D02*
X39100348Y-28034951D01*
X39100348Y-28034951D02*
X39143205Y-27992094D01*
X39143205Y-27992094D02*
X39228920Y-27949237D01*
X39228920Y-27949237D02*
X39443205Y-27949237D01*
X39443205Y-27949237D02*
X39571777Y-27992094D01*
X39871777Y-27949237D02*
X40086063Y-28849237D01*
X40086063Y-28849237D02*
X40257491Y-28206380D01*
X40257491Y-28206380D02*
X40428920Y-28849237D01*
X40428920Y-28849237D02*
X40643206Y-27949237D01*
X40943205Y-28034951D02*
X40986062Y-27992094D01*
X40986062Y-27992094D02*
X41071777Y-27949237D01*
X41071777Y-27949237D02*
X41286062Y-27949237D01*
X41286062Y-27949237D02*
X41371777Y-27992094D01*
X41371777Y-27992094D02*
X41414634Y-28034951D01*
X41414634Y-28034951D02*
X41457491Y-28120665D01*
X41457491Y-28120665D02*
X41457491Y-28206380D01*
X41457491Y-28206380D02*
X41414634Y-28334951D01*
X41414634Y-28334951D02*
X40900348Y-28849237D01*
X40900348Y-28849237D02*
X41457491Y-28849237D01*
%TO.C,SW3*%
X57057491Y-21806380D02*
X57186063Y-21849237D01*
X57186063Y-21849237D02*
X57400348Y-21849237D01*
X57400348Y-21849237D02*
X57486063Y-21806380D01*
X57486063Y-21806380D02*
X57528920Y-21763522D01*
X57528920Y-21763522D02*
X57571777Y-21677808D01*
X57571777Y-21677808D02*
X57571777Y-21592094D01*
X57571777Y-21592094D02*
X57528920Y-21506380D01*
X57528920Y-21506380D02*
X57486063Y-21463522D01*
X57486063Y-21463522D02*
X57400348Y-21420665D01*
X57400348Y-21420665D02*
X57228920Y-21377808D01*
X57228920Y-21377808D02*
X57143205Y-21334951D01*
X57143205Y-21334951D02*
X57100348Y-21292094D01*
X57100348Y-21292094D02*
X57057491Y-21206380D01*
X57057491Y-21206380D02*
X57057491Y-21120665D01*
X57057491Y-21120665D02*
X57100348Y-21034951D01*
X57100348Y-21034951D02*
X57143205Y-20992094D01*
X57143205Y-20992094D02*
X57228920Y-20949237D01*
X57228920Y-20949237D02*
X57443205Y-20949237D01*
X57443205Y-20949237D02*
X57571777Y-20992094D01*
X57871777Y-20949237D02*
X58086063Y-21849237D01*
X58086063Y-21849237D02*
X58257491Y-21206380D01*
X58257491Y-21206380D02*
X58428920Y-21849237D01*
X58428920Y-21849237D02*
X58643206Y-20949237D01*
X58900348Y-20949237D02*
X59457491Y-20949237D01*
X59457491Y-20949237D02*
X59157491Y-21292094D01*
X59157491Y-21292094D02*
X59286062Y-21292094D01*
X59286062Y-21292094D02*
X59371777Y-21334951D01*
X59371777Y-21334951D02*
X59414634Y-21377808D01*
X59414634Y-21377808D02*
X59457491Y-21463522D01*
X59457491Y-21463522D02*
X59457491Y-21677808D01*
X59457491Y-21677808D02*
X59414634Y-21763522D01*
X59414634Y-21763522D02*
X59371777Y-21806380D01*
X59371777Y-21806380D02*
X59286062Y-21849237D01*
X59286062Y-21849237D02*
X59028919Y-21849237D01*
X59028919Y-21849237D02*
X58943205Y-21806380D01*
X58943205Y-21806380D02*
X58900348Y-21763522D01*
%TO.C,SW4*%
X75057491Y-27306380D02*
X75186063Y-27349237D01*
X75186063Y-27349237D02*
X75400348Y-27349237D01*
X75400348Y-27349237D02*
X75486063Y-27306380D01*
X75486063Y-27306380D02*
X75528920Y-27263522D01*
X75528920Y-27263522D02*
X75571777Y-27177808D01*
X75571777Y-27177808D02*
X75571777Y-27092094D01*
X75571777Y-27092094D02*
X75528920Y-27006380D01*
X75528920Y-27006380D02*
X75486063Y-26963522D01*
X75486063Y-26963522D02*
X75400348Y-26920665D01*
X75400348Y-26920665D02*
X75228920Y-26877808D01*
X75228920Y-26877808D02*
X75143205Y-26834951D01*
X75143205Y-26834951D02*
X75100348Y-26792094D01*
X75100348Y-26792094D02*
X75057491Y-26706380D01*
X75057491Y-26706380D02*
X75057491Y-26620665D01*
X75057491Y-26620665D02*
X75100348Y-26534951D01*
X75100348Y-26534951D02*
X75143205Y-26492094D01*
X75143205Y-26492094D02*
X75228920Y-26449237D01*
X75228920Y-26449237D02*
X75443205Y-26449237D01*
X75443205Y-26449237D02*
X75571777Y-26492094D01*
X75871777Y-26449237D02*
X76086063Y-27349237D01*
X76086063Y-27349237D02*
X76257491Y-26706380D01*
X76257491Y-26706380D02*
X76428920Y-27349237D01*
X76428920Y-27349237D02*
X76643206Y-26449237D01*
X77371777Y-26749237D02*
X77371777Y-27349237D01*
X77157491Y-26406380D02*
X76943205Y-27049237D01*
X76943205Y-27049237D02*
X77500348Y-27049237D01*
%TO.C,SW5*%
X93057491Y-29806380D02*
X93186063Y-29849237D01*
X93186063Y-29849237D02*
X93400348Y-29849237D01*
X93400348Y-29849237D02*
X93486063Y-29806380D01*
X93486063Y-29806380D02*
X93528920Y-29763522D01*
X93528920Y-29763522D02*
X93571777Y-29677808D01*
X93571777Y-29677808D02*
X93571777Y-29592094D01*
X93571777Y-29592094D02*
X93528920Y-29506380D01*
X93528920Y-29506380D02*
X93486063Y-29463522D01*
X93486063Y-29463522D02*
X93400348Y-29420665D01*
X93400348Y-29420665D02*
X93228920Y-29377808D01*
X93228920Y-29377808D02*
X93143205Y-29334951D01*
X93143205Y-29334951D02*
X93100348Y-29292094D01*
X93100348Y-29292094D02*
X93057491Y-29206380D01*
X93057491Y-29206380D02*
X93057491Y-29120665D01*
X93057491Y-29120665D02*
X93100348Y-29034951D01*
X93100348Y-29034951D02*
X93143205Y-28992094D01*
X93143205Y-28992094D02*
X93228920Y-28949237D01*
X93228920Y-28949237D02*
X93443205Y-28949237D01*
X93443205Y-28949237D02*
X93571777Y-28992094D01*
X93871777Y-28949237D02*
X94086063Y-29849237D01*
X94086063Y-29849237D02*
X94257491Y-29206380D01*
X94257491Y-29206380D02*
X94428920Y-29849237D01*
X94428920Y-29849237D02*
X94643206Y-28949237D01*
X95414634Y-28949237D02*
X94986062Y-28949237D01*
X94986062Y-28949237D02*
X94943205Y-29377808D01*
X94943205Y-29377808D02*
X94986062Y-29334951D01*
X94986062Y-29334951D02*
X95071777Y-29292094D01*
X95071777Y-29292094D02*
X95286062Y-29292094D01*
X95286062Y-29292094D02*
X95371777Y-29334951D01*
X95371777Y-29334951D02*
X95414634Y-29377808D01*
X95414634Y-29377808D02*
X95457491Y-29463522D01*
X95457491Y-29463522D02*
X95457491Y-29677808D01*
X95457491Y-29677808D02*
X95414634Y-29763522D01*
X95414634Y-29763522D02*
X95371777Y-29806380D01*
X95371777Y-29806380D02*
X95286062Y-29849237D01*
X95286062Y-29849237D02*
X95071777Y-29849237D01*
X95071777Y-29849237D02*
X94986062Y-29806380D01*
X94986062Y-29806380D02*
X94943205Y-29763522D01*
%TO.C,SW6*%
X21057491Y-57806380D02*
X21186063Y-57849237D01*
X21186063Y-57849237D02*
X21400348Y-57849237D01*
X21400348Y-57849237D02*
X21486063Y-57806380D01*
X21486063Y-57806380D02*
X21528920Y-57763522D01*
X21528920Y-57763522D02*
X21571777Y-57677808D01*
X21571777Y-57677808D02*
X21571777Y-57592094D01*
X21571777Y-57592094D02*
X21528920Y-57506380D01*
X21528920Y-57506380D02*
X21486063Y-57463522D01*
X21486063Y-57463522D02*
X21400348Y-57420665D01*
X21400348Y-57420665D02*
X21228920Y-57377808D01*
X21228920Y-57377808D02*
X21143205Y-57334951D01*
X21143205Y-57334951D02*
X21100348Y-57292094D01*
X21100348Y-57292094D02*
X21057491Y-57206380D01*
X21057491Y-57206380D02*
X21057491Y-57120665D01*
X21057491Y-57120665D02*
X21100348Y-57034951D01*
X21100348Y-57034951D02*
X21143205Y-56992094D01*
X21143205Y-56992094D02*
X21228920Y-56949237D01*
X21228920Y-56949237D02*
X21443205Y-56949237D01*
X21443205Y-56949237D02*
X21571777Y-56992094D01*
X21871777Y-56949237D02*
X22086063Y-57849237D01*
X22086063Y-57849237D02*
X22257491Y-57206380D01*
X22257491Y-57206380D02*
X22428920Y-57849237D01*
X22428920Y-57849237D02*
X22643206Y-56949237D01*
X23371777Y-56949237D02*
X23200348Y-56949237D01*
X23200348Y-56949237D02*
X23114634Y-56992094D01*
X23114634Y-56992094D02*
X23071777Y-57034951D01*
X23071777Y-57034951D02*
X22986062Y-57163522D01*
X22986062Y-57163522D02*
X22943205Y-57334951D01*
X22943205Y-57334951D02*
X22943205Y-57677808D01*
X22943205Y-57677808D02*
X22986062Y-57763522D01*
X22986062Y-57763522D02*
X23028919Y-57806380D01*
X23028919Y-57806380D02*
X23114634Y-57849237D01*
X23114634Y-57849237D02*
X23286062Y-57849237D01*
X23286062Y-57849237D02*
X23371777Y-57806380D01*
X23371777Y-57806380D02*
X23414634Y-57763522D01*
X23414634Y-57763522D02*
X23457491Y-57677808D01*
X23457491Y-57677808D02*
X23457491Y-57463522D01*
X23457491Y-57463522D02*
X23414634Y-57377808D01*
X23414634Y-57377808D02*
X23371777Y-57334951D01*
X23371777Y-57334951D02*
X23286062Y-57292094D01*
X23286062Y-57292094D02*
X23114634Y-57292094D01*
X23114634Y-57292094D02*
X23028919Y-57334951D01*
X23028919Y-57334951D02*
X22986062Y-57377808D01*
X22986062Y-57377808D02*
X22943205Y-57463522D01*
%TO.C,SW7*%
X39057491Y-45780380D02*
X39186063Y-45823237D01*
X39186063Y-45823237D02*
X39400348Y-45823237D01*
X39400348Y-45823237D02*
X39486063Y-45780380D01*
X39486063Y-45780380D02*
X39528920Y-45737522D01*
X39528920Y-45737522D02*
X39571777Y-45651808D01*
X39571777Y-45651808D02*
X39571777Y-45566094D01*
X39571777Y-45566094D02*
X39528920Y-45480380D01*
X39528920Y-45480380D02*
X39486063Y-45437522D01*
X39486063Y-45437522D02*
X39400348Y-45394665D01*
X39400348Y-45394665D02*
X39228920Y-45351808D01*
X39228920Y-45351808D02*
X39143205Y-45308951D01*
X39143205Y-45308951D02*
X39100348Y-45266094D01*
X39100348Y-45266094D02*
X39057491Y-45180380D01*
X39057491Y-45180380D02*
X39057491Y-45094665D01*
X39057491Y-45094665D02*
X39100348Y-45008951D01*
X39100348Y-45008951D02*
X39143205Y-44966094D01*
X39143205Y-44966094D02*
X39228920Y-44923237D01*
X39228920Y-44923237D02*
X39443205Y-44923237D01*
X39443205Y-44923237D02*
X39571777Y-44966094D01*
X39871777Y-44923237D02*
X40086063Y-45823237D01*
X40086063Y-45823237D02*
X40257491Y-45180380D01*
X40257491Y-45180380D02*
X40428920Y-45823237D01*
X40428920Y-45823237D02*
X40643206Y-44923237D01*
X40900348Y-44923237D02*
X41500348Y-44923237D01*
X41500348Y-44923237D02*
X41114634Y-45823237D01*
%TO.C,SW8*%
X57057491Y-38922380D02*
X57186063Y-38965237D01*
X57186063Y-38965237D02*
X57400348Y-38965237D01*
X57400348Y-38965237D02*
X57486063Y-38922380D01*
X57486063Y-38922380D02*
X57528920Y-38879522D01*
X57528920Y-38879522D02*
X57571777Y-38793808D01*
X57571777Y-38793808D02*
X57571777Y-38708094D01*
X57571777Y-38708094D02*
X57528920Y-38622380D01*
X57528920Y-38622380D02*
X57486063Y-38579522D01*
X57486063Y-38579522D02*
X57400348Y-38536665D01*
X57400348Y-38536665D02*
X57228920Y-38493808D01*
X57228920Y-38493808D02*
X57143205Y-38450951D01*
X57143205Y-38450951D02*
X57100348Y-38408094D01*
X57100348Y-38408094D02*
X57057491Y-38322380D01*
X57057491Y-38322380D02*
X57057491Y-38236665D01*
X57057491Y-38236665D02*
X57100348Y-38150951D01*
X57100348Y-38150951D02*
X57143205Y-38108094D01*
X57143205Y-38108094D02*
X57228920Y-38065237D01*
X57228920Y-38065237D02*
X57443205Y-38065237D01*
X57443205Y-38065237D02*
X57571777Y-38108094D01*
X57871777Y-38065237D02*
X58086063Y-38965237D01*
X58086063Y-38965237D02*
X58257491Y-38322380D01*
X58257491Y-38322380D02*
X58428920Y-38965237D01*
X58428920Y-38965237D02*
X58643206Y-38065237D01*
X59114634Y-38450951D02*
X59028919Y-38408094D01*
X59028919Y-38408094D02*
X58986062Y-38365237D01*
X58986062Y-38365237D02*
X58943205Y-38279522D01*
X58943205Y-38279522D02*
X58943205Y-38236665D01*
X58943205Y-38236665D02*
X58986062Y-38150951D01*
X58986062Y-38150951D02*
X59028919Y-38108094D01*
X59028919Y-38108094D02*
X59114634Y-38065237D01*
X59114634Y-38065237D02*
X59286062Y-38065237D01*
X59286062Y-38065237D02*
X59371777Y-38108094D01*
X59371777Y-38108094D02*
X59414634Y-38150951D01*
X59414634Y-38150951D02*
X59457491Y-38236665D01*
X59457491Y-38236665D02*
X59457491Y-38279522D01*
X59457491Y-38279522D02*
X59414634Y-38365237D01*
X59414634Y-38365237D02*
X59371777Y-38408094D01*
X59371777Y-38408094D02*
X59286062Y-38450951D01*
X59286062Y-38450951D02*
X59114634Y-38450951D01*
X59114634Y-38450951D02*
X59028919Y-38493808D01*
X59028919Y-38493808D02*
X58986062Y-38536665D01*
X58986062Y-38536665D02*
X58943205Y-38622380D01*
X58943205Y-38622380D02*
X58943205Y-38793808D01*
X58943205Y-38793808D02*
X58986062Y-38879522D01*
X58986062Y-38879522D02*
X59028919Y-38922380D01*
X59028919Y-38922380D02*
X59114634Y-38965237D01*
X59114634Y-38965237D02*
X59286062Y-38965237D01*
X59286062Y-38965237D02*
X59371777Y-38922380D01*
X59371777Y-38922380D02*
X59414634Y-38879522D01*
X59414634Y-38879522D02*
X59457491Y-38793808D01*
X59457491Y-38793808D02*
X59457491Y-38622380D01*
X59457491Y-38622380D02*
X59414634Y-38536665D01*
X59414634Y-38536665D02*
X59371777Y-38493808D01*
X59371777Y-38493808D02*
X59286062Y-38450951D01*
%TO.C,SW9*%
X75057491Y-44256380D02*
X75186063Y-44299237D01*
X75186063Y-44299237D02*
X75400348Y-44299237D01*
X75400348Y-44299237D02*
X75486063Y-44256380D01*
X75486063Y-44256380D02*
X75528920Y-44213522D01*
X75528920Y-44213522D02*
X75571777Y-44127808D01*
X75571777Y-44127808D02*
X75571777Y-44042094D01*
X75571777Y-44042094D02*
X75528920Y-43956380D01*
X75528920Y-43956380D02*
X75486063Y-43913522D01*
X75486063Y-43913522D02*
X75400348Y-43870665D01*
X75400348Y-43870665D02*
X75228920Y-43827808D01*
X75228920Y-43827808D02*
X75143205Y-43784951D01*
X75143205Y-43784951D02*
X75100348Y-43742094D01*
X75100348Y-43742094D02*
X75057491Y-43656380D01*
X75057491Y-43656380D02*
X75057491Y-43570665D01*
X75057491Y-43570665D02*
X75100348Y-43484951D01*
X75100348Y-43484951D02*
X75143205Y-43442094D01*
X75143205Y-43442094D02*
X75228920Y-43399237D01*
X75228920Y-43399237D02*
X75443205Y-43399237D01*
X75443205Y-43399237D02*
X75571777Y-43442094D01*
X75871777Y-43399237D02*
X76086063Y-44299237D01*
X76086063Y-44299237D02*
X76257491Y-43656380D01*
X76257491Y-43656380D02*
X76428920Y-44299237D01*
X76428920Y-44299237D02*
X76643206Y-43399237D01*
X77028919Y-44299237D02*
X77200348Y-44299237D01*
X77200348Y-44299237D02*
X77286062Y-44256380D01*
X77286062Y-44256380D02*
X77328919Y-44213522D01*
X77328919Y-44213522D02*
X77414634Y-44084951D01*
X77414634Y-44084951D02*
X77457491Y-43913522D01*
X77457491Y-43913522D02*
X77457491Y-43570665D01*
X77457491Y-43570665D02*
X77414634Y-43484951D01*
X77414634Y-43484951D02*
X77371777Y-43442094D01*
X77371777Y-43442094D02*
X77286062Y-43399237D01*
X77286062Y-43399237D02*
X77114634Y-43399237D01*
X77114634Y-43399237D02*
X77028919Y-43442094D01*
X77028919Y-43442094D02*
X76986062Y-43484951D01*
X76986062Y-43484951D02*
X76943205Y-43570665D01*
X76943205Y-43570665D02*
X76943205Y-43784951D01*
X76943205Y-43784951D02*
X76986062Y-43870665D01*
X76986062Y-43870665D02*
X77028919Y-43913522D01*
X77028919Y-43913522D02*
X77114634Y-43956380D01*
X77114634Y-43956380D02*
X77286062Y-43956380D01*
X77286062Y-43956380D02*
X77371777Y-43913522D01*
X77371777Y-43913522D02*
X77414634Y-43870665D01*
X77414634Y-43870665D02*
X77457491Y-43784951D01*
%TO.C,SW10*%
X93037491Y-46796380D02*
X93166063Y-46839237D01*
X93166063Y-46839237D02*
X93380348Y-46839237D01*
X93380348Y-46839237D02*
X93466063Y-46796380D01*
X93466063Y-46796380D02*
X93508920Y-46753522D01*
X93508920Y-46753522D02*
X93551777Y-46667808D01*
X93551777Y-46667808D02*
X93551777Y-46582094D01*
X93551777Y-46582094D02*
X93508920Y-46496380D01*
X93508920Y-46496380D02*
X93466063Y-46453522D01*
X93466063Y-46453522D02*
X93380348Y-46410665D01*
X93380348Y-46410665D02*
X93208920Y-46367808D01*
X93208920Y-46367808D02*
X93123205Y-46324951D01*
X93123205Y-46324951D02*
X93080348Y-46282094D01*
X93080348Y-46282094D02*
X93037491Y-46196380D01*
X93037491Y-46196380D02*
X93037491Y-46110665D01*
X93037491Y-46110665D02*
X93080348Y-46024951D01*
X93080348Y-46024951D02*
X93123205Y-45982094D01*
X93123205Y-45982094D02*
X93208920Y-45939237D01*
X93208920Y-45939237D02*
X93423205Y-45939237D01*
X93423205Y-45939237D02*
X93551777Y-45982094D01*
X93851777Y-45939237D02*
X94066063Y-46839237D01*
X94066063Y-46839237D02*
X94237491Y-46196380D01*
X94237491Y-46196380D02*
X94408920Y-46839237D01*
X94408920Y-46839237D02*
X94623206Y-45939237D01*
X95437491Y-46839237D02*
X94923205Y-46839237D01*
X95180348Y-46839237D02*
X95180348Y-45939237D01*
X95180348Y-45939237D02*
X95094634Y-46067808D01*
X95094634Y-46067808D02*
X95008919Y-46153522D01*
X95008919Y-46153522D02*
X94923205Y-46196380D01*
X95994634Y-45939237D02*
X96080348Y-45939237D01*
X96080348Y-45939237D02*
X96166062Y-45982094D01*
X96166062Y-45982094D02*
X96208920Y-46024951D01*
X96208920Y-46024951D02*
X96251777Y-46110665D01*
X96251777Y-46110665D02*
X96294634Y-46282094D01*
X96294634Y-46282094D02*
X96294634Y-46496380D01*
X96294634Y-46496380D02*
X96251777Y-46667808D01*
X96251777Y-46667808D02*
X96208920Y-46753522D01*
X96208920Y-46753522D02*
X96166062Y-46796380D01*
X96166062Y-46796380D02*
X96080348Y-46839237D01*
X96080348Y-46839237D02*
X95994634Y-46839237D01*
X95994634Y-46839237D02*
X95908920Y-46796380D01*
X95908920Y-46796380D02*
X95866062Y-46753522D01*
X95866062Y-46753522D02*
X95823205Y-46667808D01*
X95823205Y-46667808D02*
X95780348Y-46496380D01*
X95780348Y-46496380D02*
X95780348Y-46282094D01*
X95780348Y-46282094D02*
X95823205Y-46110665D01*
X95823205Y-46110665D02*
X95866062Y-46024951D01*
X95866062Y-46024951D02*
X95908920Y-45982094D01*
X95908920Y-45982094D02*
X95994634Y-45939237D01*
%TO.C,SW11*%
X21057491Y-74806380D02*
X21186063Y-74849237D01*
X21186063Y-74849237D02*
X21400348Y-74849237D01*
X21400348Y-74849237D02*
X21486063Y-74806380D01*
X21486063Y-74806380D02*
X21528920Y-74763522D01*
X21528920Y-74763522D02*
X21571777Y-74677808D01*
X21571777Y-74677808D02*
X21571777Y-74592094D01*
X21571777Y-74592094D02*
X21528920Y-74506380D01*
X21528920Y-74506380D02*
X21486063Y-74463522D01*
X21486063Y-74463522D02*
X21400348Y-74420665D01*
X21400348Y-74420665D02*
X21228920Y-74377808D01*
X21228920Y-74377808D02*
X21143205Y-74334951D01*
X21143205Y-74334951D02*
X21100348Y-74292094D01*
X21100348Y-74292094D02*
X21057491Y-74206380D01*
X21057491Y-74206380D02*
X21057491Y-74120665D01*
X21057491Y-74120665D02*
X21100348Y-74034951D01*
X21100348Y-74034951D02*
X21143205Y-73992094D01*
X21143205Y-73992094D02*
X21228920Y-73949237D01*
X21228920Y-73949237D02*
X21443205Y-73949237D01*
X21443205Y-73949237D02*
X21571777Y-73992094D01*
X21871777Y-73949237D02*
X22086063Y-74849237D01*
X22086063Y-74849237D02*
X22257491Y-74206380D01*
X22257491Y-74206380D02*
X22428920Y-74849237D01*
X22428920Y-74849237D02*
X22643206Y-73949237D01*
X23457491Y-74849237D02*
X22943205Y-74849237D01*
X23200348Y-74849237D02*
X23200348Y-73949237D01*
X23200348Y-73949237D02*
X23114634Y-74077808D01*
X23114634Y-74077808D02*
X23028919Y-74163522D01*
X23028919Y-74163522D02*
X22943205Y-74206380D01*
X24314634Y-74849237D02*
X23800348Y-74849237D01*
X24057491Y-74849237D02*
X24057491Y-73949237D01*
X24057491Y-73949237D02*
X23971777Y-74077808D01*
X23971777Y-74077808D02*
X23886062Y-74163522D01*
X23886062Y-74163522D02*
X23800348Y-74206380D01*
%TO.C,SW12*%
X39057491Y-62798380D02*
X39186063Y-62841237D01*
X39186063Y-62841237D02*
X39400348Y-62841237D01*
X39400348Y-62841237D02*
X39486063Y-62798380D01*
X39486063Y-62798380D02*
X39528920Y-62755522D01*
X39528920Y-62755522D02*
X39571777Y-62669808D01*
X39571777Y-62669808D02*
X39571777Y-62584094D01*
X39571777Y-62584094D02*
X39528920Y-62498380D01*
X39528920Y-62498380D02*
X39486063Y-62455522D01*
X39486063Y-62455522D02*
X39400348Y-62412665D01*
X39400348Y-62412665D02*
X39228920Y-62369808D01*
X39228920Y-62369808D02*
X39143205Y-62326951D01*
X39143205Y-62326951D02*
X39100348Y-62284094D01*
X39100348Y-62284094D02*
X39057491Y-62198380D01*
X39057491Y-62198380D02*
X39057491Y-62112665D01*
X39057491Y-62112665D02*
X39100348Y-62026951D01*
X39100348Y-62026951D02*
X39143205Y-61984094D01*
X39143205Y-61984094D02*
X39228920Y-61941237D01*
X39228920Y-61941237D02*
X39443205Y-61941237D01*
X39443205Y-61941237D02*
X39571777Y-61984094D01*
X39871777Y-61941237D02*
X40086063Y-62841237D01*
X40086063Y-62841237D02*
X40257491Y-62198380D01*
X40257491Y-62198380D02*
X40428920Y-62841237D01*
X40428920Y-62841237D02*
X40643206Y-61941237D01*
X41457491Y-62841237D02*
X40943205Y-62841237D01*
X41200348Y-62841237D02*
X41200348Y-61941237D01*
X41200348Y-61941237D02*
X41114634Y-62069808D01*
X41114634Y-62069808D02*
X41028919Y-62155522D01*
X41028919Y-62155522D02*
X40943205Y-62198380D01*
X41800348Y-62026951D02*
X41843205Y-61984094D01*
X41843205Y-61984094D02*
X41928920Y-61941237D01*
X41928920Y-61941237D02*
X42143205Y-61941237D01*
X42143205Y-61941237D02*
X42228920Y-61984094D01*
X42228920Y-61984094D02*
X42271777Y-62026951D01*
X42271777Y-62026951D02*
X42314634Y-62112665D01*
X42314634Y-62112665D02*
X42314634Y-62198380D01*
X42314634Y-62198380D02*
X42271777Y-62326951D01*
X42271777Y-62326951D02*
X41757491Y-62841237D01*
X41757491Y-62841237D02*
X42314634Y-62841237D01*
%TO.C,SW13*%
X57057491Y-55940380D02*
X57186063Y-55983237D01*
X57186063Y-55983237D02*
X57400348Y-55983237D01*
X57400348Y-55983237D02*
X57486063Y-55940380D01*
X57486063Y-55940380D02*
X57528920Y-55897522D01*
X57528920Y-55897522D02*
X57571777Y-55811808D01*
X57571777Y-55811808D02*
X57571777Y-55726094D01*
X57571777Y-55726094D02*
X57528920Y-55640380D01*
X57528920Y-55640380D02*
X57486063Y-55597522D01*
X57486063Y-55597522D02*
X57400348Y-55554665D01*
X57400348Y-55554665D02*
X57228920Y-55511808D01*
X57228920Y-55511808D02*
X57143205Y-55468951D01*
X57143205Y-55468951D02*
X57100348Y-55426094D01*
X57100348Y-55426094D02*
X57057491Y-55340380D01*
X57057491Y-55340380D02*
X57057491Y-55254665D01*
X57057491Y-55254665D02*
X57100348Y-55168951D01*
X57100348Y-55168951D02*
X57143205Y-55126094D01*
X57143205Y-55126094D02*
X57228920Y-55083237D01*
X57228920Y-55083237D02*
X57443205Y-55083237D01*
X57443205Y-55083237D02*
X57571777Y-55126094D01*
X57871777Y-55083237D02*
X58086063Y-55983237D01*
X58086063Y-55983237D02*
X58257491Y-55340380D01*
X58257491Y-55340380D02*
X58428920Y-55983237D01*
X58428920Y-55983237D02*
X58643206Y-55083237D01*
X59457491Y-55983237D02*
X58943205Y-55983237D01*
X59200348Y-55983237D02*
X59200348Y-55083237D01*
X59200348Y-55083237D02*
X59114634Y-55211808D01*
X59114634Y-55211808D02*
X59028919Y-55297522D01*
X59028919Y-55297522D02*
X58943205Y-55340380D01*
X59757491Y-55083237D02*
X60314634Y-55083237D01*
X60314634Y-55083237D02*
X60014634Y-55426094D01*
X60014634Y-55426094D02*
X60143205Y-55426094D01*
X60143205Y-55426094D02*
X60228920Y-55468951D01*
X60228920Y-55468951D02*
X60271777Y-55511808D01*
X60271777Y-55511808D02*
X60314634Y-55597522D01*
X60314634Y-55597522D02*
X60314634Y-55811808D01*
X60314634Y-55811808D02*
X60271777Y-55897522D01*
X60271777Y-55897522D02*
X60228920Y-55940380D01*
X60228920Y-55940380D02*
X60143205Y-55983237D01*
X60143205Y-55983237D02*
X59886062Y-55983237D01*
X59886062Y-55983237D02*
X59800348Y-55940380D01*
X59800348Y-55940380D02*
X59757491Y-55897522D01*
%TO.C,SW14*%
X75057491Y-61274380D02*
X75186063Y-61317237D01*
X75186063Y-61317237D02*
X75400348Y-61317237D01*
X75400348Y-61317237D02*
X75486063Y-61274380D01*
X75486063Y-61274380D02*
X75528920Y-61231522D01*
X75528920Y-61231522D02*
X75571777Y-61145808D01*
X75571777Y-61145808D02*
X75571777Y-61060094D01*
X75571777Y-61060094D02*
X75528920Y-60974380D01*
X75528920Y-60974380D02*
X75486063Y-60931522D01*
X75486063Y-60931522D02*
X75400348Y-60888665D01*
X75400348Y-60888665D02*
X75228920Y-60845808D01*
X75228920Y-60845808D02*
X75143205Y-60802951D01*
X75143205Y-60802951D02*
X75100348Y-60760094D01*
X75100348Y-60760094D02*
X75057491Y-60674380D01*
X75057491Y-60674380D02*
X75057491Y-60588665D01*
X75057491Y-60588665D02*
X75100348Y-60502951D01*
X75100348Y-60502951D02*
X75143205Y-60460094D01*
X75143205Y-60460094D02*
X75228920Y-60417237D01*
X75228920Y-60417237D02*
X75443205Y-60417237D01*
X75443205Y-60417237D02*
X75571777Y-60460094D01*
X75871777Y-60417237D02*
X76086063Y-61317237D01*
X76086063Y-61317237D02*
X76257491Y-60674380D01*
X76257491Y-60674380D02*
X76428920Y-61317237D01*
X76428920Y-61317237D02*
X76643206Y-60417237D01*
X77457491Y-61317237D02*
X76943205Y-61317237D01*
X77200348Y-61317237D02*
X77200348Y-60417237D01*
X77200348Y-60417237D02*
X77114634Y-60545808D01*
X77114634Y-60545808D02*
X77028919Y-60631522D01*
X77028919Y-60631522D02*
X76943205Y-60674380D01*
X78228920Y-60717237D02*
X78228920Y-61317237D01*
X78014634Y-60374380D02*
X77800348Y-61017237D01*
X77800348Y-61017237D02*
X78357491Y-61017237D01*
%TO.C,SW15*%
X93037491Y-63814380D02*
X93166063Y-63857237D01*
X93166063Y-63857237D02*
X93380348Y-63857237D01*
X93380348Y-63857237D02*
X93466063Y-63814380D01*
X93466063Y-63814380D02*
X93508920Y-63771522D01*
X93508920Y-63771522D02*
X93551777Y-63685808D01*
X93551777Y-63685808D02*
X93551777Y-63600094D01*
X93551777Y-63600094D02*
X93508920Y-63514380D01*
X93508920Y-63514380D02*
X93466063Y-63471522D01*
X93466063Y-63471522D02*
X93380348Y-63428665D01*
X93380348Y-63428665D02*
X93208920Y-63385808D01*
X93208920Y-63385808D02*
X93123205Y-63342951D01*
X93123205Y-63342951D02*
X93080348Y-63300094D01*
X93080348Y-63300094D02*
X93037491Y-63214380D01*
X93037491Y-63214380D02*
X93037491Y-63128665D01*
X93037491Y-63128665D02*
X93080348Y-63042951D01*
X93080348Y-63042951D02*
X93123205Y-63000094D01*
X93123205Y-63000094D02*
X93208920Y-62957237D01*
X93208920Y-62957237D02*
X93423205Y-62957237D01*
X93423205Y-62957237D02*
X93551777Y-63000094D01*
X93851777Y-62957237D02*
X94066063Y-63857237D01*
X94066063Y-63857237D02*
X94237491Y-63214380D01*
X94237491Y-63214380D02*
X94408920Y-63857237D01*
X94408920Y-63857237D02*
X94623206Y-62957237D01*
X95437491Y-63857237D02*
X94923205Y-63857237D01*
X95180348Y-63857237D02*
X95180348Y-62957237D01*
X95180348Y-62957237D02*
X95094634Y-63085808D01*
X95094634Y-63085808D02*
X95008919Y-63171522D01*
X95008919Y-63171522D02*
X94923205Y-63214380D01*
X96251777Y-62957237D02*
X95823205Y-62957237D01*
X95823205Y-62957237D02*
X95780348Y-63385808D01*
X95780348Y-63385808D02*
X95823205Y-63342951D01*
X95823205Y-63342951D02*
X95908920Y-63300094D01*
X95908920Y-63300094D02*
X96123205Y-63300094D01*
X96123205Y-63300094D02*
X96208920Y-63342951D01*
X96208920Y-63342951D02*
X96251777Y-63385808D01*
X96251777Y-63385808D02*
X96294634Y-63471522D01*
X96294634Y-63471522D02*
X96294634Y-63685808D01*
X96294634Y-63685808D02*
X96251777Y-63771522D01*
X96251777Y-63771522D02*
X96208920Y-63814380D01*
X96208920Y-63814380D02*
X96123205Y-63857237D01*
X96123205Y-63857237D02*
X95908920Y-63857237D01*
X95908920Y-63857237D02*
X95823205Y-63814380D01*
X95823205Y-63814380D02*
X95780348Y-63771522D01*
%TO.C,SW17*%
X112048898Y-103267544D02*
X112138816Y-103368946D01*
X112138816Y-103368946D02*
X112324393Y-103476088D01*
X112324393Y-103476088D02*
X112420052Y-103481830D01*
X112420052Y-103481830D02*
X112478596Y-103466143D01*
X112478596Y-103466143D02*
X112558569Y-103413341D01*
X112558569Y-103413341D02*
X112601426Y-103339110D01*
X112601426Y-103339110D02*
X112607168Y-103243451D01*
X112607168Y-103243451D02*
X112591481Y-103184907D01*
X112591481Y-103184907D02*
X112538679Y-103104935D01*
X112538679Y-103104935D02*
X112411646Y-102982105D01*
X112411646Y-102982105D02*
X112358843Y-102902132D01*
X112358843Y-102902132D02*
X112343157Y-102843589D01*
X112343157Y-102843589D02*
X112348898Y-102747929D01*
X112348898Y-102747929D02*
X112391756Y-102673698D01*
X112391756Y-102673698D02*
X112471728Y-102620896D01*
X112471728Y-102620896D02*
X112530272Y-102605209D01*
X112530272Y-102605209D02*
X112625931Y-102610951D01*
X112625931Y-102610951D02*
X112811508Y-102718094D01*
X112811508Y-102718094D02*
X112901426Y-102819495D01*
X113182662Y-102932380D02*
X112918239Y-103818946D01*
X112918239Y-103818946D02*
X113388129Y-103347929D01*
X113388129Y-103347929D02*
X113215162Y-103990374D01*
X113215162Y-103990374D02*
X113850739Y-103318094D01*
X114105931Y-104504660D02*
X113660546Y-104247517D01*
X113883238Y-104376088D02*
X114333238Y-103596665D01*
X114333238Y-103596665D02*
X114194722Y-103665154D01*
X114194722Y-103665154D02*
X114077634Y-103696528D01*
X114077634Y-103696528D02*
X113981975Y-103690786D01*
X114815738Y-103875237D02*
X115335354Y-104175237D01*
X115335354Y-104175237D02*
X114551315Y-104761803D01*
%TO.C,SW16*%
X95593878Y-94531364D02*
X95706977Y-94606038D01*
X95706977Y-94606038D02*
X95913961Y-94661499D01*
X95913961Y-94661499D02*
X96007847Y-94642287D01*
X96007847Y-94642287D02*
X96060336Y-94611982D01*
X96060336Y-94611982D02*
X96123917Y-94540281D01*
X96123917Y-94540281D02*
X96146102Y-94457487D01*
X96146102Y-94457487D02*
X96126889Y-94363601D01*
X96126889Y-94363601D02*
X96096585Y-94311112D01*
X96096585Y-94311112D02*
X96024883Y-94247531D01*
X96024883Y-94247531D02*
X95870388Y-94161765D01*
X95870388Y-94161765D02*
X95798687Y-94098184D01*
X95798687Y-94098184D02*
X95768382Y-94045695D01*
X95768382Y-94045695D02*
X95749170Y-93951809D01*
X95749170Y-93951809D02*
X95771354Y-93869015D01*
X95771354Y-93869015D02*
X95834936Y-93797314D01*
X95834936Y-93797314D02*
X95887425Y-93767009D01*
X95887425Y-93767009D02*
X95981311Y-93747797D01*
X95981311Y-93747797D02*
X96188295Y-93803258D01*
X96188295Y-93803258D02*
X96301393Y-93877932D01*
X96602263Y-93914181D02*
X96576310Y-94838975D01*
X96576310Y-94838975D02*
X96908281Y-94262392D01*
X96908281Y-94262392D02*
X96907485Y-94927713D01*
X96907485Y-94927713D02*
X97347406Y-94113841D01*
X97901008Y-95193927D02*
X97404246Y-95060820D01*
X97652627Y-95127373D02*
X97885564Y-94258040D01*
X97885564Y-94258040D02*
X97769494Y-94360046D01*
X97769494Y-94360046D02*
X97664516Y-94420655D01*
X97664516Y-94420655D02*
X97570630Y-94439868D01*
X98879088Y-94524254D02*
X98713501Y-94479885D01*
X98713501Y-94479885D02*
X98619615Y-94499097D01*
X98619615Y-94499097D02*
X98567126Y-94529402D01*
X98567126Y-94529402D02*
X98451055Y-94631408D01*
X98451055Y-94631408D02*
X98365290Y-94785903D01*
X98365290Y-94785903D02*
X98276552Y-95117078D01*
X98276552Y-95117078D02*
X98295764Y-95210963D01*
X98295764Y-95210963D02*
X98326069Y-95263452D01*
X98326069Y-95263452D02*
X98397770Y-95327034D01*
X98397770Y-95327034D02*
X98563357Y-95371403D01*
X98563357Y-95371403D02*
X98657243Y-95352190D01*
X98657243Y-95352190D02*
X98709732Y-95321886D01*
X98709732Y-95321886D02*
X98773313Y-95250184D01*
X98773313Y-95250184D02*
X98828775Y-95043200D01*
X98828775Y-95043200D02*
X98809562Y-94949314D01*
X98809562Y-94949314D02*
X98779258Y-94896825D01*
X98779258Y-94896825D02*
X98707556Y-94833244D01*
X98707556Y-94833244D02*
X98541969Y-94788875D01*
X98541969Y-94788875D02*
X98448083Y-94808087D01*
X98448083Y-94808087D02*
X98395594Y-94838392D01*
X98395594Y-94838392D02*
X98332013Y-94910093D01*
D10*
%TO.C,POWER SW*%
X92135507Y-25210204D02*
X92295850Y-24632026D01*
X92295850Y-24632026D02*
X92516108Y-24693109D01*
X92516108Y-24693109D02*
X92563538Y-24735912D01*
X92563538Y-24735912D02*
X92583435Y-24771080D01*
X92583435Y-24771080D02*
X92595696Y-24833780D01*
X92595696Y-24833780D02*
X92572790Y-24916376D01*
X92572790Y-24916376D02*
X92529987Y-24963806D01*
X92529987Y-24963806D02*
X92494819Y-24983703D01*
X92494819Y-24983703D02*
X92432119Y-24995964D01*
X92432119Y-24995964D02*
X92211861Y-24934881D01*
X92984158Y-24822910D02*
X93094287Y-24853452D01*
X93094287Y-24853452D02*
X93141716Y-24896255D01*
X93141716Y-24896255D02*
X93181510Y-24966590D01*
X93181510Y-24966590D02*
X93178501Y-25084355D01*
X93178501Y-25084355D02*
X93125053Y-25277081D01*
X93125053Y-25277081D02*
X93066979Y-25379575D01*
X93066979Y-25379575D02*
X92996644Y-25419369D01*
X92996644Y-25419369D02*
X92933944Y-25431630D01*
X92933944Y-25431630D02*
X92823815Y-25401089D01*
X92823815Y-25401089D02*
X92776385Y-25358286D01*
X92776385Y-25358286D02*
X92736591Y-25287950D01*
X92736591Y-25287950D02*
X92739601Y-25170186D01*
X92739601Y-25170186D02*
X92793048Y-24977460D01*
X92793048Y-24977460D02*
X92851122Y-24874966D01*
X92851122Y-24874966D02*
X92921458Y-24835172D01*
X92921458Y-24835172D02*
X92984158Y-24822910D01*
X93424674Y-24945076D02*
X93401992Y-25561432D01*
X93401992Y-25561432D02*
X93626652Y-25178989D01*
X93626652Y-25178989D02*
X93622251Y-25622515D01*
X93622251Y-25622515D02*
X93920255Y-25082513D01*
X94064160Y-25418919D02*
X94256886Y-25472367D01*
X94255493Y-25798128D02*
X93980170Y-25721774D01*
X93980170Y-25721774D02*
X94140513Y-25143596D01*
X94140513Y-25143596D02*
X94415836Y-25219950D01*
X94833671Y-25958471D02*
X94717299Y-25629701D01*
X94503284Y-25866847D02*
X94663627Y-25288668D01*
X94663627Y-25288668D02*
X94883885Y-25349751D01*
X94883885Y-25349751D02*
X94931315Y-25392555D01*
X94931315Y-25392555D02*
X94951211Y-25427722D01*
X94951211Y-25427722D02*
X94963473Y-25490422D01*
X94963473Y-25490422D02*
X94940567Y-25573019D01*
X94940567Y-25573019D02*
X94897764Y-25620448D01*
X94897764Y-25620448D02*
X94862596Y-25640345D01*
X94862596Y-25640345D02*
X94799896Y-25652607D01*
X94799896Y-25652607D02*
X94579638Y-25591524D01*
X95502082Y-26114188D02*
X95577044Y-26164627D01*
X95577044Y-26164627D02*
X95714705Y-26202804D01*
X95714705Y-26202804D02*
X95777405Y-26190542D01*
X95777405Y-26190542D02*
X95812573Y-26170645D01*
X95812573Y-26170645D02*
X95855376Y-26123216D01*
X95855376Y-26123216D02*
X95870647Y-26068151D01*
X95870647Y-26068151D02*
X95858385Y-26005451D01*
X95858385Y-26005451D02*
X95838488Y-25970284D01*
X95838488Y-25970284D02*
X95791059Y-25927481D01*
X95791059Y-25927481D02*
X95688565Y-25869407D01*
X95688565Y-25869407D02*
X95641136Y-25826604D01*
X95641136Y-25826604D02*
X95621239Y-25791436D01*
X95621239Y-25791436D02*
X95608978Y-25728736D01*
X95608978Y-25728736D02*
X95624248Y-25673671D01*
X95624248Y-25673671D02*
X95667051Y-25626242D01*
X95667051Y-25626242D02*
X95702219Y-25606345D01*
X95702219Y-25606345D02*
X95764919Y-25594084D01*
X95764919Y-25594084D02*
X95902581Y-25632261D01*
X95902581Y-25632261D02*
X95977542Y-25682699D01*
X96177904Y-25708615D02*
X96155222Y-26324970D01*
X96155222Y-26324970D02*
X96379882Y-25942527D01*
X96379882Y-25942527D02*
X96375481Y-26386053D01*
X96375481Y-26386053D02*
X96673485Y-25846051D01*
%TO.C,B+*%
X125492000Y-44974000D02*
X125492000Y-46974000D01*
X125492000Y-46974000D02*
X127492000Y-46974000D01*
X127492000Y-44974000D02*
X125492000Y-44974000D01*
X127492000Y-46974000D02*
X127492000Y-44974000D01*
%TO.C,B-*%
X110252000Y-44974000D02*
X110252000Y-46974000D01*
X110252000Y-46974000D02*
X112252000Y-46974000D01*
X112252000Y-44974000D02*
X110252000Y-44974000D01*
X112252000Y-46974000D02*
X112252000Y-44974000D01*
%TO.C,J2*%
X123698000Y-79700000D02*
X111598000Y-79700000D01*
X123698000Y-79950000D02*
X125698000Y-79950000D01*
X125698000Y-85550000D02*
X125698000Y-79950000D01*
X123698000Y-85550000D02*
X125698000Y-85550000D01*
X123698000Y-85800000D02*
X123698000Y-79700000D01*
X123698000Y-85800000D02*
X111598000Y-85800000D01*
X111598000Y-85800000D02*
X111598000Y-79700000D01*
D11*
%TO.C,SW1*%
X20222000Y-39222000D02*
X20222000Y-41254000D01*
X20222000Y-39222000D02*
X22254000Y-39222000D01*
%TO.C,SW2*%
X38222000Y-27222000D02*
X38222000Y-29254000D01*
X38222000Y-27222000D02*
X40254000Y-27222000D01*
%TO.C,SW3*%
X56222000Y-20222000D02*
X56222000Y-22254000D01*
X56222000Y-20222000D02*
X58254000Y-20222000D01*
%TO.C,SW4*%
X74222000Y-25722000D02*
X74222000Y-27754000D01*
X74222000Y-25722000D02*
X76254000Y-25722000D01*
%TO.C,SW5*%
X92222000Y-28222000D02*
X92222000Y-30254000D01*
X92222000Y-28222000D02*
X94254000Y-28222000D01*
%TO.C,SW6*%
X20222000Y-56222000D02*
X20222000Y-58254000D01*
X20222000Y-56222000D02*
X22254000Y-56222000D01*
%TO.C,SW7*%
X38222000Y-44196000D02*
X38222000Y-46228000D01*
X38222000Y-44196000D02*
X40254000Y-44196000D01*
%TO.C,SW8*%
X56222000Y-37338000D02*
X56222000Y-39370000D01*
X56222000Y-37338000D02*
X58254000Y-37338000D01*
%TO.C,SW9*%
X74222000Y-42672000D02*
X74222000Y-44704000D01*
X74222000Y-42672000D02*
X76254000Y-42672000D01*
%TO.C,SW10*%
X92202000Y-45212000D02*
X92202000Y-47244000D01*
X92202000Y-45212000D02*
X94234000Y-45212000D01*
%TO.C,SW11*%
X20222000Y-73222000D02*
X20222000Y-75254000D01*
X20222000Y-73222000D02*
X22254000Y-73222000D01*
%TO.C,SW12*%
X38222000Y-61214000D02*
X38222000Y-63246000D01*
X38222000Y-61214000D02*
X40254000Y-61214000D01*
%TO.C,SW13*%
X56222000Y-54356000D02*
X56222000Y-56388000D01*
X56222000Y-54356000D02*
X58254000Y-54356000D01*
%TO.C,SW14*%
X74222000Y-59690000D02*
X74222000Y-61722000D01*
X74222000Y-59690000D02*
X76254000Y-59690000D01*
%TO.C,SW15*%
X92202000Y-62230000D02*
X92202000Y-64262000D01*
X92202000Y-62230000D02*
X94234000Y-62230000D01*
%TO.C,SW17*%
X111866202Y-104148202D02*
X112882202Y-102388439D01*
X111866202Y-104148202D02*
X110106439Y-103132202D01*
%TO.C,SW16*%
X95645338Y-95429300D02*
X96171259Y-93466539D01*
X95645338Y-95429300D02*
X93682577Y-94903380D01*
D10*
%TO.C,U1*%
X127762000Y-47752000D02*
X127762000Y-78232000D01*
X109982000Y-47752000D02*
X127762000Y-47752000D01*
X109982000Y-47752000D02*
X109982000Y-78232000D01*
X127762000Y-78232000D02*
X109982000Y-78232000D01*
D11*
%TO.C,RSW2*%
X83135200Y-20850400D02*
X86435200Y-20850400D01*
X83135200Y-21150400D02*
X83135200Y-20850400D01*
X83135200Y-23350400D02*
X83135200Y-23650400D01*
X83135200Y-23650400D02*
X86435200Y-23650400D01*
X86435200Y-20850400D02*
X86435200Y-21150400D01*
X86435200Y-23650400D02*
X86435200Y-23350400D01*
%TD*%
D13*
%TO.C,B+*%
X126492000Y-45974000D03*
%TD*%
%TO.C,B-*%
X111252000Y-45974000D03*
%TD*%
M02*
