M48
; DRILL file {KiCad 7.0.5} date Sun 03 Sep 2023 06:34:48 PM CEST
; FORMAT={-:-/ absolute / inch / decimal}
; #@! TF.CreationDate,2023-09-03T18:34:48+02:00
; #@! TF.GenerationSoftware,Kicad,Pcbnew,7.0.5
; #@! TF.FileFunction,Plated,1,2,PTH
FMAT,2
INCH
; #@! TA.AperFunction,Plated,PTH,ViaDrill
T1C0.0157
; #@! TA.AperFunction,Plated,PTH,ComponentDrill
T2C0.0157
; #@! TA.AperFunction,Plated,PTH,ComponentDrill
T3C0.0320
; #@! TA.AperFunction,Plated,PTH,ComponentDrill
T4C0.0354
; #@! TA.AperFunction,Plated,PTH,ComponentDrill
T5C0.0433
; #@! TA.AperFunction,Plated,PTH,ComponentDrill
T6C0.0630
%
G90
G05
T1
X3.438Y-0.876
X3.518Y-0.884
X3.692Y-1.092
X3.714Y-0.996
X3.736Y-0.962
X4.174Y-2.756
X4.274Y-2.418
X4.274Y-2.658
X4.276Y-2.836
X4.306Y-1.798
X4.336Y-2.186
X4.49Y-1.884
X4.534Y-2.058
X4.536Y-1.8532
T2
X4.65Y-1.93
X4.65Y-2.03
X4.65Y-2.13
X4.65Y-2.23
X4.65Y-2.33
X4.65Y-2.43
X4.65Y-2.53
X4.65Y-2.63
X4.65Y-2.73
X4.65Y-2.83
X4.65Y-2.93
X4.65Y-3.03
X4.71Y-1.93
X4.71Y-2.03
X4.71Y-2.13
X4.71Y-2.23
X4.71Y-2.33
X4.71Y-2.43
X4.71Y-2.53
X4.71Y-2.63
X4.71Y-2.73
X4.71Y-2.83
X4.71Y-2.93
X4.71Y-3.03
T3
X4.38Y-1.81
X4.98Y-1.81
T5
X4.38Y-1.93
X4.38Y-1.93
X4.38Y-2.03
X4.38Y-2.13
X4.38Y-2.23
X4.38Y-2.33
X4.38Y-2.43
X4.38Y-2.53
X4.38Y-2.63
X4.38Y-2.73
X4.38Y-2.83
X4.38Y-2.93
X4.38Y-3.03
X4.98Y-1.93
X4.98Y-1.93
X4.98Y-2.03
X4.98Y-2.13
X4.98Y-2.23
X4.98Y-2.33
X4.98Y-2.43
X4.98Y-2.53
X4.98Y-2.63
X4.98Y-2.73
X4.98Y-2.83
X4.98Y-2.93
X4.98Y-3.03
T6
X0.9402Y-1.9638
X0.9402Y-2.6331
X0.9402Y-3.3024
X1.0661Y-2.0504
X1.0661Y-2.7197
X1.0661Y-3.389
X1.1921Y-1.9638
X1.1921Y-2.6331
X1.1921Y-3.3024
X1.6488Y-1.4913
X1.6488Y-2.1596
X1.6488Y-2.8296
X1.7748Y-1.578
X1.7748Y-2.2462
X1.7748Y-2.9162
X1.9008Y-1.4913
X1.9008Y-2.1596
X1.9008Y-2.8296
X2.3575Y-1.2157
X2.3575Y-1.8896
X2.3575Y-2.5596
X2.4835Y-1.3024
X2.4835Y-1.9762
X2.4835Y-2.6462
X2.6094Y-1.2157
X2.6094Y-1.8896
X2.6094Y-2.5596
X3.0661Y-1.4323
X3.0661Y-2.0996
X3.0661Y-2.7696
X3.1921Y-1.5189
X3.1921Y-2.1862
X3.1921Y-2.8562
X3.3181Y-1.4323
X3.3181Y-2.0996
X3.3181Y-2.7696
X3.4917Y-3.2493
X3.6358Y-3.1982
X3.7351Y-3.3145
X3.774Y-2.1996
X3.774Y-2.8696
X3.7748Y-1.5307
X3.9Y-2.2862
X3.9Y-2.9562
X3.9008Y-1.6173
X4.026Y-2.1996
X4.026Y-2.8696
X4.0268Y-1.5307
X4.2711Y-3.5389
X4.4235Y-3.5269
X4.4893Y-3.6649
T4
G00X4.4165Y-3.3472
M15
G01X4.4322Y-3.3472
M16
G05
G00X4.433Y-3.1673
M15
G01X4.4172Y-3.1673
M16
G05
G00X4.4598Y-3.1661
M15
G01X4.4755Y-3.1661
M16
G05
G00X4.4763Y-3.3484
M15
G01X4.4606Y-3.3484
M16
G05
G00X4.6172Y-3.1661
M15
G01X4.633Y-3.1661
M16
G05
G00X4.6338Y-3.3484
M15
G01X4.618Y-3.3484
M16
G05
G00X4.7354Y-3.1661
M15
G01X4.7511Y-3.1661
M16
G05
G00X4.7519Y-3.3484
M15
G01X4.7361Y-3.3484
M16
G05
T0
M30
